<?xml version="1.0" encoding="UTF-8"?>
<svg width="25px" height="25px" viewBox="0 0 25 25" version="1.1" xmlns="http://www.w3.org/2000/svg" xmlns:xlink="http://www.w3.org/1999/xlink">
    <!-- Generator: Sketch 51.1 (57501) - http://www.bohemiancoding.com/sketch -->
    <title>Group 8 Copy 4</title>
    <desc>Created with Sketch.</desc>
    <defs>
        <polygon id="path-1" points="0.11495 0 23.74995 0 23.74995 24.999875 0.11495 24.999875"></polygon>
    </defs>
    <g id="Page-1" stroke="none" stroke-width="1" fill="none" fill-rule="evenodd">
        <g id="home-page" transform="translate(-1013.000000, -1946.000000)">
            <g id="Group-8-Copy-4" transform="translate(1013.000000, 1946.000000)">
                <g id="Group-3" transform="translate(1.250000, 0.000000)">
                    <mask id="mask-2" fill="white">
                        <use xlink:href="#path-1"></use>
                    </mask>
                    <g id="Clip-2"></g>
                    <path d="M21.89545,5.950625 C21.38245,6.419375 20.5582,7.125125 19.89045,7.475625 C19.64195,7.605875 19.4152,7.687375 19.23545,7.687375 C18.29795,7.687375 18.17295,7.687375 18.11045,7.937375 C18.04795,8.187375 19.48545,10.312375 18.48545,10.624875 C17.48545,10.937375 16.79795,11.687375 16.73545,11.937375 C16.67295,12.187375 16.04795,12.874875 15.92295,13.499875 C15.79795,14.124875 16.42295,14.687375 16.04795,15.562375 C15.67295,16.437375 13.61045,18.562375 13.04795,18.374875 C12.48545,18.187375 11.79795,14.999875 11.61045,14.687375 C11.42295,14.374875 11.17295,13.999875 11.29795,13.687375 C11.42295,13.374875 11.24995,12.499875 11.24995,12.499875 C11.24995,12.499875 10.11045,12.124875 9.23545,11.624875 C8.36045,11.124875 8.23545,9.937375 8.36045,9.437375 C8.48545,8.937375 10.29795,6.937375 10.98545,6.249875 C11.67295,5.562375 13.17295,5.624875 14.29795,6.062375 C15.42295,6.499875 16.29795,5.999875 16.17295,5.374875 C16.08295,4.924375 16.02545,4.117875 16.0002,3.702375 C15.99045,3.541625 15.98545,3.437375 15.98545,3.437375 L15.21445,0.658375 L15.23395,0.652375 C13.9822,0.231375 12.64345,-0.000125 11.24995,-0.000125 C6.39145,-0.000125 2.18345,2.773875 0.11495,6.822375 L1.92295,7.874875 C1.92295,7.874875 2.03895,8.012375 2.2132,8.222125 C2.64445,8.740875 3.44195,9.716125 3.79795,10.249875 C4.29795,10.999875 2.67295,11.874875 2.67295,12.499875 C2.67295,13.124875 3.54795,14.249875 3.04795,15.249875 C2.80695,15.732375 2.5077,16.359375 2.2627,16.880125 C2.25995,16.885625 2.2572,16.891375 2.2547,16.896875 C1.95445,17.534125 1.4597,18.058875 0.8407,18.395125 L0.37095,18.650375 C2.51745,22.440625 6.5832,24.999875 11.24995,24.999875 C18.15345,24.999875 23.74995,19.403625 23.74995,12.499875 C23.74995,10.097625 23.07045,7.855125 21.89545,5.950625" id="Fill-1" fill="#3A4579" mask="url(#mask-2)"></path>
                </g>
                <path d="M5.04805,10.24995 C4.6918,9.71595 3.89455,8.74095 3.4633,8.2222 C3.28905,8.01245 3.17305,7.87495 3.17305,7.87495 L1.36505,6.82245 C1.3648,6.8227 1.3648,6.8232 1.36455,6.82345 C0.93355,7.6667 0.5958,8.56545 0.3638,9.50545 C0.35555,9.53845 0.34855,9.5717 0.3408,9.60495 C0.29605,9.79245 0.2558,9.98195 0.2198,10.17245 C0.2083,10.23445 0.1973,10.2967 0.18655,10.3587 C0.15755,10.52445 0.1328,10.69145 0.11055,10.8592 C0.10105,10.93195 0.0913,11.00445 0.08305,11.0777 C0.0638,11.24445 0.04955,11.4127 0.0373,11.58145 C0.0323,11.65095 0.0253,11.71945 0.02155,11.7887 C0.0083,12.02445 5e-05,12.2612 5e-05,12.49995 C5e-05,12.75445 0.01005,13.0062 0.0248,13.2567 C0.0293,13.32895 0.0358,13.40095 0.04155,13.47295 C0.0558,13.65945 0.07405,13.8447 0.0963,14.0287 C0.10505,14.0982 0.1133,14.1677 0.1228,14.2367 C0.1543,14.46195 0.19055,14.6852 0.2338,14.9062 C0.2373,14.9242 0.24005,14.9427 0.24355,14.9607 C0.2948,15.21645 0.35405,15.46945 0.42055,15.71945 C0.4253,15.73645 0.43055,15.75345 0.4353,15.77045 C0.49755,16.0002 0.5663,16.2272 0.6413,16.4517 C0.6513,16.4817 0.66155,16.51145 0.67155,16.5412 C0.9238,17.27745 1.2413,17.9837 1.61955,18.65095 L2.0908,18.3952 C2.70955,18.0587 3.20455,17.5342 3.5048,16.89695 C3.5073,16.8912 3.51005,16.8857 3.51255,16.8802 C3.7578,16.3592 4.0568,15.73245 4.29805,15.24995 C4.79805,14.24995 3.92305,13.12495 3.92305,12.49995 C3.92305,11.87495 5.54805,10.99995 5.04805,10.24995" id="Fill-4" fill="#CECECE"></path>
                <path d="M22.217225,4.63985 C22.212975,4.6346 22.209225,4.62935 22.204975,4.62435 C22.108475,4.50585 22.008975,4.3901 21.908725,4.2751 C21.885725,4.2491 21.863475,4.22235 21.840475,4.1966 C21.743975,4.08835 21.645225,3.98235 21.545225,3.87735 C21.516725,3.84785 21.488725,3.81785 21.460225,3.78835 C21.359475,3.6851 21.256975,3.58385 21.152975,3.4841 C21.124475,3.4566 21.095725,3.42885 21.066725,3.40185 C20.959475,3.30085 20.850475,3.20135 20.739725,3.1041 C20.714475,3.08235 20.689225,3.0606 20.663725,3.0386 C20.546475,2.93735 20.427975,2.83785 20.306725,2.74085 C20.291725,2.7286 20.275975,2.7171 20.260975,2.70485 C19.141475,1.8176 17.867225,1.11735 16.484225,0.65235 L16.483725,0.65235 L16.464475,0.65835 L17.235475,3.43735 C17.235475,3.43735 17.240475,3.5416 17.250225,3.70235 C17.275225,4.11785 17.332975,4.92435 17.422975,5.37485 C17.547975,5.99985 16.672975,6.49985 15.547975,6.06235 C14.422975,5.62485 12.922975,5.56235 12.235475,6.24985 C11.547975,6.93735 9.735475,8.93735 9.610475,9.43735 C9.485475,9.93735 9.610475,11.12485 10.485475,11.62485 C11.360475,12.12485 12.499975,12.49985 12.499975,12.49985 C12.499975,12.49985 12.672975,13.37485 12.547975,13.68735 C12.422975,13.99985 12.672975,14.37485 12.860475,14.68735 C13.047975,14.99985 13.735475,18.18735 14.297975,18.37485 C14.860475,18.56235 16.922975,16.43735 17.297975,15.56235 C17.672975,14.68735 17.047975,14.12485 17.172975,13.49985 C17.297975,12.87485 17.922975,12.18735 17.985475,11.93735 C18.047975,11.68735 18.735475,10.93735 19.735475,10.62485 C20.735475,10.31235 19.297975,8.18735 19.360475,7.93735 C19.422975,7.68735 19.547975,7.68735 20.485475,7.68735 C20.665225,7.68735 20.891975,7.60585 21.140475,7.4756 C21.808475,7.12485 22.633475,6.4186 23.146475,5.9496 C22.864475,5.4926 22.553725,5.05535 22.217225,4.63985" id="Fill-6" fill="#CECECE"></path>
            </g>
        </g>
    </g>
</svg>