<?xml version="1.0" encoding="UTF-8"?>
<svg width="32px" height="25px" viewBox="0 0 32 25" version="1.1" xmlns="http://www.w3.org/2000/svg" xmlns:xlink="http://www.w3.org/1999/xlink">
    <!-- Generator: Sketch 51.1 (57501) - http://www.bohemiancoding.com/sketch -->
    <title>Group 10</title>
    <desc>Created with Sketch.</desc>
    <defs></defs>
    <g id="Page-1" stroke="none" stroke-width="1" fill="none" fill-rule="evenodd">
        <g id="home-page" transform="translate(-798.000000, -1874.000000)">
            <g id="Group-10" transform="translate(798.000000, 1874.000000)">
                <path d="M6.53140351,16.1811458 C6.62157895,16.1880903 6.71280702,16.1926042 6.80473684,16.1926042 L6.80473684,14.4252431 C6.70789474,14.4252431 6.61210526,14.4328819 6.51596491,14.4370486 C5.37491228,14.2953819 4.48894737,13.3314931 4.48894737,12.1648264 L4.48894737,10.1669097 C4.48894737,8.90302083 5.52789474,7.87454861 6.80473684,7.87454861 L6.80859649,7.87454861 C7.23491228,7.87836806 7.6145614,7.60961806 7.70719298,7.19815972 L7.70754386,7.19711806 C7.82684211,6.66760417 7.42929825,6.15961806 6.88122807,6.13982639 C6.85526316,6.13878472 6.82964912,6.1384375 6.80473684,6.1384375 C4.56052632,6.1384375 2.7345614,7.94538194 2.7345614,10.1669097 L2.7345614,12.1648264 C2.7345614,12.9408681 2.9577193,13.6665625 3.34403509,14.2818403 C3.60298246,14.6946875 3.47736842,15.2287153 3.06052632,15.4853125 C1.67210526,16.3419097 0.594561404,17.6714236 0.0721052632,19.3026736 L0.0412280702,19.3992014 C-0.105087719,19.8557986 0.150350877,20.3432986 0.612105263,20.4880903 L0.612807018,20.4880903 C1.0745614,20.6328819 1.56719298,20.3801042 1.71350877,19.9235069 L1.74403509,19.8273264 C2.40403509,17.7689931 4.23736842,16.3474653 6.38192982,16.1804514 C6.43175439,16.1766319 6.48157895,16.1773264 6.53140351,16.1811458" id="Fill-1" fill="#3A4579"></path>
                <path d="M31.155193,19.3987153 L31.1243158,19.3025347 C30.6018596,17.6712847 29.5246667,16.3417708 28.1362456,15.4851736 C27.7194035,15.2282292 27.5934386,14.6945486 27.852386,14.2820486 C28.2383509,13.6664236 28.4618596,12.9407292 28.4618596,12.1646875 L28.4618596,10.1667708 C28.4618596,7.94559028 26.6358947,6.13864583 24.3916842,6.13864583 C24.3667719,6.13864583 24.3415088,6.13899306 24.3155439,6.1396875 C23.7671228,6.15947917 23.3699298,6.66746528 23.4888772,7.19697917 L23.4888772,7.19802083 C23.5822105,7.60982639 23.9611579,7.87822917 24.3874737,7.87475694 L24.3916842,7.87475694 C25.6685263,7.87475694 26.7074737,8.90288194 26.7074737,10.1667708 L26.7074737,12.1646875 C26.7074737,13.3313542 25.8215088,14.2955903 24.6804561,14.4369097 C24.5839649,14.4327431 24.4888772,14.4254514 24.3916842,14.4254514 L24.3916842,16.1615625 C24.3916842,16.1615625 24.6246667,16.1848264 24.7397544,16.1751042 C26.9169474,16.3139931 28.7850175,17.7448958 29.4520351,19.8271875 L29.4829123,19.9240625 C29.6292281,20.3803125 30.1225614,20.6334375 30.5839649,20.4882986 L30.5846667,20.4882986 C31.0460702,20.3431597 31.3015088,19.8553125 31.155193,19.3987153" id="Fill-4" fill="#3A4579"></path>
                <path d="M26.6498596,23.1417014 C25.5540702,19.7222569 22.9372281,17.0979514 19.6817895,15.8868403 C21.2389825,14.6861458 22.2452982,12.8170486 22.2452982,10.7121875 L22.2452982,10.1819792 L22.2452982,7.09239583 L22.2452982,6.5621875 C22.2452982,6.43232639 22.2326667,6.30559028 22.2252982,6.1778125 L22.2452982,6.1778125 L22.2452982,5.17190972 C22.2452982,2.3153125 19.9049474,3.47222222e-05 17.0186316,3.47222222e-05 L15.6133684,3.47222222e-05 L14.2081053,3.47222222e-05 C11.3221404,3.47222222e-05 8.98178947,2.3153125 8.98178947,5.17190972 L8.98178947,6.51045139 L8.98459649,6.51045139 C8.98459649,6.52815972 8.98178947,6.54517361 8.98178947,6.5621875 L8.98178947,7.09239583 L8.98178947,10.1819792 L8.98178947,10.7121875 C8.98178947,12.8170486 9.98775439,14.6861458 11.5449474,15.8868403 C8.28950877,17.0979514 5.67266667,19.7222569 4.57687719,23.1417014 C4.30249123,23.9972569 4.94810526,24.8698264 5.85512281,24.8698264 L25.3719649,24.8698264 C26.2789825,24.8698264 26.9245965,23.9972569 26.6498596,23.1417014 Z" id="Fill-6" fill="#3A4579"></path>
                <path d="M16.9905614,23.8281597 L14.2361754,23.8281597 L15.2414386,19.1135764 L14.0965263,17.0955208 C14.5842456,17.2094097 15.0905614,17.2743403 15.6133684,17.2743403 C16.1361754,17.2743403 16.6428421,17.2094097 17.1302105,17.0955208 L15.9856491,19.1135764 L16.9905614,23.8281597 Z" id="Path" fill="#CECECE" fill-rule="nonzero"></path>
                <path d="M10.7361754,10.7121875 L10.7361754,6.5621875 C10.7361754,6.50836806 10.7424912,6.45628472 10.7442456,6.40246528 L12.3382807,4.71635417 C13.7284561,5.66809028 15.3782807,6.1778125 17.0684561,6.1778125 L20.4709123,6.1778125 C20.4810877,6.30489583 20.4909123,6.43232639 20.4909123,6.5621875 L20.4909123,10.7121875 C20.4909123,12.8167014 19.1193333,14.6066319 17.2165263,15.2649653 C16.7133684,15.4389236 16.1754737,15.5382292 15.6133684,15.5382292 C15.051614,15.5382292 14.5133684,15.4389236 14.0105614,15.2649653 C12.1074035,14.6066319 10.7361754,12.8167014 10.7361754,10.7121875 Z" id="Path" fill="#CECECE" fill-rule="nonzero"></path>
                <path d="M18.1377895,11.2834028 L13.0890175,11.2834028 C13.1546316,12.6084028 14.2577895,13.6636111 15.6135789,13.6636111 C16.9690175,13.6636111 18.0721754,12.6084028 18.1377895,11.2834028" id="Fill-8" fill="#3A4579"></path>
            </g>
        </g>
    </g>
</svg>