<?xml version="1.0" encoding="UTF-8"?>
<svg width="21px" height="28px" viewBox="0 0 21 28" version="1.1" xmlns="http://www.w3.org/2000/svg" xmlns:xlink="http://www.w3.org/1999/xlink">
    <!-- Generator: Sketch 51.1 (57501) - http://www.bohemiancoding.com/sketch -->
    <title>Group 6 Copy 2</title>
    <desc>Created with Sketch.</desc>
    <defs>
        <polygon id="path-1" points="7.875e-05 0.0843888889 21 0.0843888889 21 26.95 7.875e-05 26.95"></polygon>
    </defs>
    <g id="Page-1" stroke="none" stroke-width="1" fill="none" fill-rule="evenodd">
        <g id="home-page" transform="translate(-803.000000, -1944.000000)">
            <g id="Group-6-Copy-2" transform="translate(803.000000, 1944.000000)">
                <g id="Group-3" transform="translate(0.000000, 0.187969)">
                    <mask id="mask-2" fill="white">
                        <use xlink:href="#path-1"></use>
                    </mask>
                    <g id="Clip-2"></g>
                    <path d="M6.27802875,9.69652833 L8.76022875,9.322495 C8.88465375,9.30398389 8.99201625,9.22286167 9.04766625,9.10580611 L10.1575163,6.77367833 C10.2976913,6.47940611 10.7022038,6.47940611 10.8423788,6.77367833 L11.9522288,9.10580611 C12.0078788,9.22286167 12.1155038,9.30398389 12.2399288,9.322495 L14.7218663,9.69652833 C15.0350288,9.743895 15.1602413,10.1429728 14.9337038,10.3719117 L13.1374163,12.1873617 C13.0473788,12.2782839 13.0064288,12.409495 13.0276913,12.5379839 L13.4516288,15.1012283 C13.5051788,15.4249006 13.1778413,15.6715339 12.8977538,15.5190894 L10.6777913,14.3085172 C10.5664913,14.2480839 10.4334038,14.2480839 10.3223663,14.3085172 L8.10214125,15.5190894 C7.82231625,15.6715339 7.49497875,15.4249006 7.54826625,15.1012283 L7.97220375,12.5379839 C7.99346625,12.409495 7.95251625,12.2782839 7.86247875,12.1873617 L6.06645375,10.3719117 C5.83991625,10.1429728 5.96512875,9.743895 6.27802875,9.69652833 M10.5000788,0.0840894444 C4.70092875,0.0840894444 7.875e-05,4.95958944 7.875e-05,10.9729783 C7.875e-05,15.0146617 2.12501625,18.539395 5.27764125,20.4182728 L5.27764125,26.330395 C5.27764125,26.7817394 5.73307875,27.0771006 6.12394125,26.8797394 L10.1950538,24.8266394 C10.3559663,24.745245 10.5441788,24.7444283 10.7058788,24.8244617 L14.8798913,26.8898117 C15.2707538,27.0830894 15.7222538,26.7874561 15.7222538,26.3388339 L15.7222538,20.4182728 C18.8748788,18.539395 21.0000788,15.0146617 21.0000788,10.9729783 C21.0000788,4.95958944 16.2989663,0.0840894444 10.5000788,0.0840894444" id="Fill-1" fill="#3A4579" mask="url(#mask-2)"></path>
                </g>
                <path d="M14.7218663,9.88449778 L12.2399288,9.51046444 C12.1155038,9.49195333 12.0078788,9.41083111 11.9522288,9.29377556 L10.8423788,6.96164778 C10.7022038,6.66737556 10.2976913,6.66737556 10.1575163,6.96164778 L9.04766625,9.29377556 C8.99201625,9.41083111 8.88465375,9.49195333 8.76022875,9.51046444 L6.27802875,9.88449778 C5.96512875,9.93186444 5.83991625,10.3309422 6.06645375,10.5598811 L7.86247875,12.3753311 C7.95251625,12.4662533 7.99346625,12.5974644 7.97220375,12.7259533 L7.54826625,15.2891978 C7.49497875,15.61287 7.82231625,15.8595033 8.10214125,15.7070589 L10.3223663,14.4964867 C10.4334038,14.4360533 10.5664913,14.4360533 10.6777913,14.4964867 L12.8977538,15.7070589 C13.1778413,15.8595033 13.5051788,15.61287 13.4516288,15.2891978 L13.0276913,12.7259533 C13.0064288,12.5974644 13.0473788,12.4662533 13.1374163,12.3753311 L14.9337038,10.5598811 C15.1602413,10.3309422 15.0350288,9.93186444 14.7218663,9.88449778" id="Fill-4" fill="#CECECE"></path>
            </g>
        </g>
    </g>
</svg>