<?xml version="1.0" encoding="UTF-8"?>
<svg width="600px" height="406px" viewBox="0 0 600 406" version="1.1" xmlns="http://www.w3.org/2000/svg" xmlns:xlink="http://www.w3.org/1999/xlink">
    <!-- Generator: Sketch 51.1 (57501) - http://www.bohemiancoding.com/sketch -->
    <title>Group 150</title>
    <desc>Created with Sketch.</desc>
    <defs>
        <polygon id="path-1" points="0 0.946215963 189.052226 0.946215963 189.052226 68.2868697 0 68.2868697"></polygon>
        <polygon id="path-3" points="0.0348733568 0.0830950525 599.19863 0.0830950525 599.19863 79.9786317 0.0348733568 79.9786317"></polygon>
    </defs>
    <g id="Page-1" stroke="none" stroke-width="1" fill="none" fill-rule="evenodd">
        <g id="careers" transform="translate(-98.000000, -930.000000)">
            <g id="Group-150" transform="translate(98.000000, 930.000000)">
                <g id="Group-3" transform="translate(0.000000, 296.000000)">
                    <mask id="mask-2" fill="white">
                        <use xlink:href="#path-1"></use>
                    </mask>
                    <g id="Clip-2"></g>
                    <path d="M0.253572973,68.2706597 C47.7525459,50.4171672 96.4880595,32.8417343 146.449843,15.5639284 C160.542708,10.6896448 174.736222,5.84007761 189.019086,1.01316716 C189.127951,0.976092537 188.943086,0.921510448 188.832168,0.958585075 C138.005627,18.1354657 88.3745459,35.611003 40.0046541,53.3759284 C26.5824378,58.3058239 13.2577892,63.2583761 0.025572973,68.2315254 C-0.0771297297,68.2706597 0.15087027,68.309794 0.253572973,68.2706597" id="Fill-1" fill="#DDDDDD" mask="url(#mask-2)"></path>
                </g>
                <path d="M315.258319,405.907624 C322.00795,375.713196 325.276673,346.538856 324.98168,318.512116 C324.89784,310.587916 324.525218,302.758322 323.882446,295.018191 C323.87727,294.960605 323.618505,295.053154 323.622645,295.109711 C325.894604,322.482442 324.678407,351.007915 319.899532,380.610034 C318.548777,388.981551 316.909241,397.438418 315.000589,405.975493 C314.986098,406.037192 315.243828,405.970352 315.258319,405.907624" id="Fill-4" fill="#CECECE"></path>
                <path d="M156.303825,401.985079 C182.867367,376.586694 205.340586,349.911832 223.560649,322.031182 C228.710932,314.14797 233.516088,306.16846 237.997624,298.100846 C238.030395,298.041427 237.713943,297.961519 237.681171,298.020938 C221.833988,326.552119 201.801239,353.933858 177.56449,380.041169 C170.710076,387.42342 163.51668,394.703225 156.006831,401.882634 C155.951529,401.935905 156.248523,402.038351 156.303825,401.985079" id="Fill-6" fill="#CECECE"></path>
                <path d="M462.017021,286.059957 C497.073488,305.811043 532.128924,325.563158 567.185391,345.315272 C577.044378,350.870458 586.904396,356.425643 596.763383,361.980829 C596.842766,362.02504 597.062359,361.984942 596.982976,361.939702 C561.92754,342.188616 526.871073,322.436502 491.815637,302.684388 L462.237645,286.019859 C462.15723,285.97462 461.937638,286.014718 462.017021,286.059957" id="Fill-8" fill="#CECECE"></path>
                <path d="M388.013745,298.045363 C419.168547,323.258059 450.32335,348.471785 481.477129,373.685511 C490.240121,380.777193 499.002089,387.867845 507.764058,394.959527 C507.835734,395.016162 508.056908,395.012043 507.986255,394.955408 C476.831453,369.741683 445.67665,344.527957 414.522871,319.315261 C405.759879,312.223579 396.996887,305.131896 388.235942,298.041244 C388.164266,297.98358 387.943092,297.987698 388.013745,298.045363" id="Fill-10" fill="#CECECE"></path>
                <g id="Group-14" style="mix-blend-mode: multiply;" transform="translate(0.000000, 315.000000)">
                    <mask id="mask-4" fill="white">
                        <use xlink:href="#path-3"></use>
                    </mask>
                    <g id="Clip-13"></g>
                    <path d="M575.336301,8.31603418 C560.634247,4.58490759 545.634247,2.39073038 530.494521,1.21776835 C503.219178,-0.893358228 475.491781,0.312413924 448.250342,1.83398354 C405.991438,4.19323671 362.345548,-0.326358228 320.621918,6.77498354 C318.015411,7.21894557 311.595205,7.89462911 304.434247,9.17627468 C301.512329,8.75692025 299.535616,8.4606038 298.966438,8.31603418 C284.264384,4.58490759 269.264384,2.39073038 254.124658,1.21776835 C226.849315,-0.893358228 199.121918,0.312413924 171.880479,1.83398354 C129.621575,4.19323671 85.9756849,-0.326358228 44.2520548,6.77498354 C36.8722603,8.0309962 -1.04691781,11.1264266 0.0585616438,24.6606038 C1.40239726,40.9344266 89.2787671,43.6258823 113.593151,45.0418443 C121.033562,45.4755532 129.040068,45.7841734 137.484247,45.9666797 C126.740753,48.663262 117.963699,51.8376418 111.992466,55.528781 C94.6006849,66.2771734 159.40274,77.6715152 174.542466,78.8434519 C201.816781,80.9556038 229.545205,79.7488063 256.785616,78.228262 C299.044521,75.8690089 342.691438,80.3875785 384.415068,73.2862367 C391.794863,72.0312494 429.713014,68.935819 428.607534,55.4016418 C428.269521,51.3178063 426.108904,48.3474646 422.914726,46.1830215 C479.85411,46.8166671 538.284247,40.420743 593.043493,24.5324392 C612.686301,18.8316797 579.393493,9.3454519 575.336301,8.31603418" id="Fill-12" fill="#EBF5FF" style="mix-blend-mode: multiply;" mask="url(#mask-4)"></path>
                </g>
                <path d="M424,238 L88,238 L88,5.14556768 C88,2.30418521 90.3028422,0 93.1425685,0 L418.857431,0 C421.698186,0 424,2.30418521 424,5.14556768 L424,238 Z" id="Fill-15" fill="#DDEEFF"></path>
                <polygon id="Fill-17" fill="#FFFFFF" points="96 229 415 229 415 22 96 22"></polygon>
                <polygon id="Fill-19" fill="#BEDEFC" points="96 39 415 39 415 21 96 21"></polygon>
                <path d="M115,30 C115,31.6566408 113.656868,33 111.999493,33 C110.343132,33 109,31.6566408 109,30 C109,28.3423454 110.343132,27 111.999493,27 C113.656868,27 115,28.3423454 115,30" id="Fill-20" fill="#FFFFFF"></path>
                <path d="M129,30 C129,31.6566408 127.657655,33 126,33 C124.342345,33 123,31.6566408 123,30 C123,28.3423454 124.342345,27 126,27 C127.657655,27 129,28.3423454 129,30" id="Fill-21" fill="#FFFFFF"></path>
                <path d="M142,30 C142,31.6566408 140.656641,33 139,33 C137.342345,33 136,31.6566408 136,30 C136,28.3423454 137.342345,27 139,27 C140.656641,27 142,28.3423454 142,30" id="Fill-22" fill="#FFFFFF"></path>
                <polygon id="Fill-23" fill="#CDE0FF" points="96 230 165 230 165 40 96 40"></polygon>
                <polygon id="Fill-24" fill="#C3D3FF" points="112 69 148 69 148 62 112 62"></polygon>
                <polygon id="Fill-25" fill="#C3D3FF" points="112 90 148 90 148 83 112 83"></polygon>
                <polygon id="Fill-26" fill="#C3D3FF" points="112 110 148 110 148 103 112 103"></polygon>
                <polygon id="Fill-27" fill="#C3D3FF" points="112 131 148 131 148 124 112 124"></polygon>
                <polygon id="Fill-28" fill="#C3D3FF" points="112 152 148 152 148 145 112 145"></polygon>
                <polygon id="Fill-29" fill="#C3D3FF" points="112 172 148 172 148 165 112 165"></polygon>
                <path d="M403,278.875684 L396.422956,283.479822 L397.115827,336 L380.500523,335.658685 L376,277 C376,277 391.577044,282.115595 403,278.875684" id="Fill-30" fill="#F2F2F2"></path>
                <path d="M387.029688,278.828315 C387.029688,278.828315 377.775125,275.236365 377.261097,263.948563 C376.74707,252.66076 378.976249,251.464133 376.74707,245.30621 C374.519964,239.149321 371.776758,233.333734 374.347931,225.124894 C376.919103,216.915019 367.32151,213.152418 370.748703,206.310855 C374.176934,199.470327 385.65964,220.677619 392,240.345948 C392,240.345948 386.344664,247.016859 385.65964,255.397385 C384.973579,263.777911 386.858691,273.355065 391.314976,279 L387.029688,278.828315 Z" id="Fill-31" fill="#C9D9FB"></path>
                <path d="M391.72119,279 C391.72119,279 381.03639,264.174997 384.80518,252.311907 C388.575006,240.448816 396.323921,239.407977 399.255662,233.580928 C402.18844,227.752848 403.025488,214.640957 405.95723,210.478632 C408.888971,206.316306 413.286584,204.859544 416.638921,206.940192 C419.989187,209.021869 424.596062,223.382561 416.429659,238.367138 C408.261185,253.351716 412.240273,258.763871 410.354842,263.34212 C408.470447,267.92037 406.795314,274.997249 397.580529,278.53466 L391.72119,279 Z" id="Fill-32" fill="#FFFFFF"></path>
                <path d="M375.00042,276.368895 C375.813176,295.493247 377.21227,314.589025 379.196634,333.633782 C379.247898,334.119518 380.048906,334.124621 379.997642,333.633782 C378.013278,314.589025 376.614184,295.493247 375.801428,276.368895 C375.780068,275.878056 374.979059,275.876015 375.00042,276.368895" id="Fill-33" fill="#182646"></path>
                <path d="M376.270895,277.76568 C386.598022,280.455318 397.28283,280.717417 407.726482,278.547818 C408.205753,278.44901 408.002088,277.697035 407.524843,277.795843 C397.206835,279.93944 386.677056,279.6711 376.472533,277.013705 C375.998328,276.889936 375.795677,277.641911 376.270895,277.76568" id="Fill-34" fill="#182646"></path>
                <path d="M408.225473,278.368099 C407.032123,296.837834 405.29006,315.267774 403.003408,333.636491 C402.942554,334.123208 403.716117,334.119127 403.776971,333.636491 C406.063622,315.267774 407.805686,296.837834 408.999036,278.368099 C409.03101,277.87628 408.257447,277.878321 408.225473,278.368099" id="Fill-35" fill="#182646"></path>
                <path d="M380.362411,282.593769 C387.116296,283.115602 393.879279,283.134549 400.637207,282.651399 C401.1184,282.616663 401.123455,282.024567 400.637207,282.059303 C393.879279,282.542454 387.116296,282.523507 380.362411,282.001673 C379.878186,281.964568 379.880208,282.556664 380.362411,282.593769" id="Fill-36" fill="#182646"></path>
                <path d="M389.553835,278.2551 C380.984813,276.995917 377.713115,267.965629 377.904974,260.197595 C377.997874,256.43233 379.104597,252.61895 378.549216,248.859828 C378.067549,245.616663 376.447857,242.712352 375.335075,239.674957 C373.805253,235.499178 374.338419,231.792265 375.037189,227.511042 C375.523905,224.522786 375.725861,221.588787 374.562591,218.731567 C373.224628,215.442335 369.556085,211.557294 371.092975,207.773602 C372.485466,204.345143 375.951043,206.455043 377.498031,208.556753 C378.692605,210.180382 379.726623,211.948357 380.746505,213.688692 C385.297598,221.444441 388.793468,229.774501 391.253301,238.443414 C391.387602,238.917399 392.118685,238.715725 391.983374,238.238669 C389.464974,229.361939 385.866106,220.835324 381.171623,212.912707 C379.643821,210.333941 377.667675,205.933966 374.452525,205.113962 C372.026015,204.494607 370.342706,206.497016 370.052898,208.766617 C369.597486,212.324065 372.193639,215.355318 373.582091,218.376334 C375.836938,223.285101 373.731539,228.0874 373.463947,233.136418 C373.228667,237.592698 375.332046,241.301657 376.811379,245.349471 C378.604754,250.258237 377.336466,254.730897 377.158744,259.753297 C376.867926,267.956415 380.258779,277.658268 389.352888,278.995254 C389.828496,279.065891 390.035502,278.325737 389.553835,278.2551" id="Fill-37" fill="#182646"></path>
                <path d="M392.08705,278.431307 C386.47516,269.360273 383.202159,257.293874 388.167913,247.230184 C390.430423,242.647593 394.341302,239.260282 397.538955,235.355153 C400.658163,231.547242 402.222927,227.570478 402.915511,222.726931 C403.65351,217.57433 403.979675,211.60816 408.174401,207.857558 C413.463223,203.127603 420.749288,207.38272 422.602027,213.295675 C424.447541,219.18407 421.822741,225.515578 419.203102,230.733674 C416.862148,235.399157 414.105231,239.87839 412.276231,244.781292 C411.334895,247.300796 410.710434,249.898075 410.438974,252.571083 C410.052944,256.385133 410.281053,260.291286 409.310816,264.031655 C407.782177,269.931306 403.363472,274.720616 397.704102,276.997585 C397.248916,277.180765 397.448124,277.923722 397.910535,277.737471 C402.631665,275.838121 406.536352,272.356662 408.753446,267.77714 C411.612548,261.871349 410.355369,255.284002 411.780791,249.066086 C414.425202,237.530809 426.136166,226.868456 423.657934,214.374293 C422.774399,209.927808 419.197941,205.677808 414.473714,205.068911 C409.96521,204.486621 406.45894,207.67847 404.636133,211.472054 C401.871991,217.227412 402.968152,223.966216 400.292776,229.747158 C397.766032,235.21086 392.711511,238.931785 389.311554,243.800916 C381.874793,254.443826 385.034255,268.497584 391.419238,278.818136 C391.678312,279.238736 392.348188,278.853954 392.08705,278.431307" id="Fill-38" fill="#182646"></path>
                <path d="M391.739283,278.722194 C396.398907,257.86331 403.518279,237.671224 412.955377,218.587366 C413.174961,218.143868 412.524266,217.749992 412.303674,218.196592 C402.838373,237.337308 395.684753,257.592456 391.011028,278.515435 C390.902243,279.002352 391.631505,279.209111 391.739283,278.722194" id="Fill-39" fill="#182646"></path>
                <path d="M381.030523,226.463446 C383.782961,233.098366 386.178189,239.854838 388.214079,246.727713 C388.355475,247.205683 389.124116,247.001722 388.98272,246.522722 C386.945767,239.649847 384.552666,232.893374 381.800227,226.257424 C381.61099,225.802117 380.838096,226.000928 381.030523,226.463446" id="Fill-40" fill="#182646"></path>
                <path d="M364.374842,335.580047 C384.458626,335.720027 404.541374,335.860008 424.625158,335.999988 C425.124429,336.003081 425.125465,335.423053 424.625158,335.41996 C404.541374,335.279979 384.458626,335.139999 364.374842,335.000019 C363.875571,334.996152 363.874535,335.57618 364.374842,335.580047" id="Fill-41" fill="#182646"></path>
                <path d="M392.002133,256.367688 C392.325516,259.665714 393.165473,262.784444 394.546151,265.813013 C394.679494,266.103985 395.072174,266.016899 395.225466,265.813013 C397.496498,262.797763 401.413845,261.66666 403.899067,258.850172 C404.22875,258.478261 403.673328,257.932175 403.342595,258.307161 C400.809077,261.177949 396.872831,262.336715 394.546151,265.424709 L395.225466,265.424709 C393.904634,262.524208 393.099326,259.529449 392.789592,256.367688 C392.741295,255.880002 391.953835,255.874879 392.002133,256.367688" id="Fill-42" fill="#182646"></path>
                <path d="M400.004564,241.515097 C400.23859,243.27873 400.589628,245.002977 401.06063,246.70753 C401.148143,247.020433 401.463783,247.084983 401.67716,246.888051 C403.41072,245.289622 405.143296,243.691193 406.875873,242.092764 C407.241661,241.755792 406.717562,241.178125 406.354724,241.512909 C404.621164,243.111338 402.888587,244.709767 401.15601,246.308197 L401.77254,246.488717 C401.299572,244.785258 400.949517,243.061011 400.716474,241.297378 C400.64666,240.776603 399.936716,240.997604 400.004564,241.515097" id="Fill-43" fill="#182646"></path>
                <path d="M409.003197,223.552292 C409.099452,224.252773 409.196742,224.953254 409.291961,225.654631 C409.318871,225.843878 409.523801,226.071691 409.783585,225.978413 C411.557569,225.3452 413.236334,224.57207 414.825054,223.639292 C415.235948,223.398025 414.847824,222.815039 414.433825,223.058099 C412.903065,223.957692 411.287435,224.718265 409.57762,225.329953 L410.068209,225.654631 C409.972989,224.953254 409.875699,224.252773 409.779445,223.552292 C409.72045,223.127161 408.944202,223.122676 409.003197,223.552292" id="Fill-44" fill="#182646"></path>
                <path d="M379.128355,232.605314 C380.534988,233.707693 381.941621,234.811053 383.347266,235.914412 C383.717693,236.20446 384.246168,235.688057 383.87179,235.395069 C382.465157,234.29171 381.058524,233.18835 379.651891,232.085971 C379.281465,231.794943 378.753978,232.312326 379.128355,232.605314" id="Fill-45" fill="#182646"></path>
                <path d="M384.297481,230.368583 C384.1983,232.122861 384.099119,233.877139 384.000874,235.631417 C383.971868,236.123882 384.674556,236.121839 384.702626,235.631417 C384.800871,233.877139 384.900052,232.122861 384.999233,230.368583 C385.026368,229.876118 384.324615,229.878161 384.297481,230.368583" id="Fill-46" fill="#182646"></path>
                <path d="M383.137545,243.632682 C384.79348,244.891149 386.542171,246.000776 388.402594,246.952324 C388.852679,247.182256 389.253223,246.518123 388.802084,246.287164 C387.003851,245.367436 385.298376,244.305028 383.696199,243.088647 C383.299871,242.786861 382.737001,243.327817 383.137545,243.632682" id="Fill-47" fill="#182646"></path>
                <path d="M174,146.920941 C174,146.920941 172.492504,171.54148 172.707709,174.671945 C172.922913,177.801377 171.846891,208.473322 171.846891,211.812277 C171.846891,215.150201 172.492504,222.591891 166.032113,226 L160,226 L163.66167,144 L174,146.920941 Z" id="Fill-48" fill="#E6888C"></path>
                <path d="M107.70778,319.02338 L119.181755,329.603828 C119.704237,330.084393 120,330.75318 120,331.452002 C120,332.859658 118.82519,334 117.376258,334 L88.9221608,334 C87.6710915,334 86.7539155,332.857656 87.0589538,331.67927 L90.8585358,317 L107.70778,319.02338 Z" id="Fill-49" fill="#F9D671"></path>
                <path d="M160.272819,319.02338 L172.758621,328.410424 C173.540568,329.000118 174,329.915194 174,330.887338 C174,332.60636 172.589249,334 170.846856,334 L143.339757,334 C142.317444,334 141.48073,333.198057 141.44929,332.188869 L141,317 L160.272819,319.02338 Z" id="Fill-50" fill="#F9D671"></path>
                <polygon id="Fill-51" fill="#FFFFFF" points="152 335 150.644311 335 141.032579 327.136088 141 326"></polygon>
                <polygon id="Fill-52" fill="#FFFFFF" points="141 321 158 335 156.691294 335 141.031425 322.102942"></polygon>
                <polygon id="Fill-53" fill="#FFFFFF" points="88.2367632 326 96 335 94.9110889 335 88 326.987792"></polygon>
                <polygon id="Fill-54" fill="#FFFFFF" points="89.2355084 321 101 334 99.9168599 334 89 321.936508"></polygon>
                <path d="M102.055658,263.316424 L109.018334,206.113207 C114.893124,205.678034 114.457764,206.54838 131.431656,207.852875 C148.403499,209.157369 162.329875,206.113207 162.329875,206.113207 L167,324 L141.005463,324 L136.001392,224.818473 L113.020566,324 L89,324 C89,324 99.0091668,270.711291 102.055658,263.316424" id="Fill-55" fill="#182646"></path>
                <path d="M93,322 C95.4589204,309.094153 102.77493,271.304579 105.306959,265.141193 C105.306959,265.141193 110.651095,221.11701 112,210" id="Stroke-56" stroke="#FFFFFF" stroke-width="0.5"></path>
                <path d="M160,267 C160,267 159.385284,269.112968 156,268.995258" id="Stroke-57" stroke="#070707" stroke-width="0.75"></path>
                <path d="M123,269 C123,269 122.385284,271.112968 119,270.995258" id="Stroke-58" stroke="#070707" stroke-width="0.75"></path>
                <path d="M144,323 L139,224" id="Stroke-59" stroke="#FFFFFF" stroke-width="0.5"></path>
                <polygon id="Fill-60" fill="#4166B1" points="136.477318 235 136 225.015283 143 223"></polygon>
                <path d="M143,223 L132,226" id="Stroke-61" stroke="#070707" stroke-width="0.75"></path>
                <path d="M173.333513,122.618677 C172.222521,120.131615 150.832325,105.210266 150.832325,105.210266 L139.442085,103 C112.292871,108.300129 108.45593,111.615528 106.416364,134.75874 C106.163866,137.631266 106.091724,205.804042 106,206.897898 L109.441188,207.174694 C146.387328,209.10919 164.583681,207.036296 164.583681,207.036296 C164.583681,207.036296 164.721782,178.160335 165.55451,168.765677 C166.388269,159.369995 166.944795,147.211479 166.944795,147.211479 L175,147.488275 C175,147.488275 174.444504,125.10574 173.333513,122.618677" id="Fill-62" fill="#F9D671"></path>
                <path d="M167,145 L167.606,131" id="Stroke-63" stroke="#070707" stroke-width="0.75"></path>
                <path d="M135,152 L122,147" id="Stroke-64" stroke="#070707" stroke-width="0.75"></path>
                <path d="M238.856988,134 L192.143012,134 C189.303041,134 187,131.694678 187,128.851893 L187,87.1481071 C187,84.3042927 189.303041,82 192.143012,82 L238.856988,82 C241.696959,82 244,84.3042927 244,87.1481071 L244,128.851893 C244,131.694678 241.696959,134 238.856988,134" id="Fill-65" fill="#C2EFFF"></path>
                <path d="M145,135 L133,129" id="Stroke-66" stroke="#FFFFFF" stroke-width="0.5"></path>
                <path d="M159.857266,141.913457 L192.492003,127.269758 C192.492003,127.269758 191.34862,121.288398 192.855993,121.269816 C193.720728,121.260525 195.141731,124.035447 195.141731,124.035447 C195.141731,124.035447 200.285925,120.801135 201.066346,121.009667 C201.845738,121.218199 201.638037,124.139713 201.638037,124.139713 C201.638037,124.139713 204.444055,124.870607 204.651755,126.122832 C204.860485,127.375057 204.183914,128.678898 204.183914,128.678898 C204.183914,128.678898 206.315419,129.514059 206.262979,130.557751 C206.21054,131.600412 205.431148,132.383955 205.431148,132.383955 C205.431148,132.383955 207.146222,133.32235 206.989932,134.15751 C206.834671,134.991638 200.390804,138.174333 197.116945,137.913152 L159.303054,160 C159.303054,160 146.624049,156.593288 135,152.731316 C139.018291,139.986084 143.852991,134.887372 143.852991,134.887372 L159.857266,141.913457 Z" id="Fill-67" fill="#E6888C"></path>
                <path d="M160,142 L158,147" id="Stroke-68" stroke="#D86C74"></path>
                <path d="M166,212 L166.246929,220 C166.246929,220 169.244451,219.492892 168.983954,214.528238" id="Stroke-69" stroke="#D86C74"></path>
                <path d="M143.801786,112.597877 L142.55377,112.097578 C140.282543,111.186355 138.851055,108.883128 139.01235,106.40115 L140.635375,81.5978058 C140.841025,78.4470496 143.40863,76 146.508507,76 L152.743544,76 C155.934149,76 158.543086,78.5898456 158.626758,81.8392234 L158.998743,96.2893493 C159.051164,98.2854104 157.457373,99.9229406 155.497646,99.8859575 L151.624564,99.8140459 L151.459237,107.407913 C151.372542,111.381543 147.431918,114.053574 143.801786,112.597877" id="Fill-70" fill="#E6888C"></path>
                <path d="M151,100.549465 L150.845195,108.376426 C150.840476,108.589225 150.821597,108.795671 150.797999,109 L146,100 L151,100.549465 Z" id="Fill-71" fill="#070707"></path>
                <polyline id="Stroke-72" stroke="#070707" stroke-width="0.75" points="154.407407 88 155 93 152 93"></polyline>
                <path d="M156,95 C156,95 154.087822,96.768 151,95.204" id="Stroke-73" stroke="#070707" stroke-width="0.75"></path>
                <path d="M151.002348,89.2481337 C150.982348,89.4031337 151.092348,89.5431337 151.247348,89.5621337 C151.401348,89.5821337 151.542348,89.4721337 151.562348,89.3171337 C151.581348,89.1631337 151.471348,89.0221337 151.316348,89.0021337 C151.161348,88.9831337 151.021348,89.0931337 151.002348,89.2481337 Z" id="Stroke-74" stroke="#070707" stroke-width="0.75"></path>
                <path d="M156.002348,88.2481337 C155.982348,88.4031337 156.092348,88.5431337 156.247348,88.5621337 C156.401348,88.5811337 156.542348,88.4721337 156.562348,88.3171337 C156.581348,88.1631337 156.471348,88.0221337 156.316348,88.0021337 C156.161348,87.9831337 156.021348,88.0931337 156.002348,88.2481337 Z" id="Stroke-75" stroke="#070707" stroke-width="0.75"></path>
                <path d="M145.072495,82.2129111 C145.072495,82.2129111 145.957865,82.2303022 147.196343,83.620569 C148.898337,85.5315464 152.720013,85.6553303 154.047027,83.6737654 C155.375083,81.6911774 156.914586,84.8727298 159.411331,82.630298 C161.907034,80.3868433 161.216445,77.4661577 159.039475,76.0584998 C156.861464,74.6498189 153.993905,75.6932862 150.223268,74.4932988 C146.452631,73.2943344 144.169417,74.4411254 142.469506,76.2150199 C140.770636,77.9878914 138.69991,77.935718 138.114524,80.5955367 C137.531221,83.2563784 139.370709,88.5228195 139.274881,94 C139.274881,94 142.214311,92.7815984 141.997655,90.6005471 C141.779958,88.4194957 142.399718,88.454278 143.620487,88.9760117 L144.311076,88.9760117 C144.311076,88.9760117 143.585073,85.8118504 144.222539,84.8205564 C144.860006,83.8302855 145.496431,83.5172453 145.072495,82.2129111" id="Fill-76" fill="#070707"></path>
                <path d="M144,89.5223774 C144,89.5223774 143.061372,87.9251911 141.543684,88.0027349 C139.407229,88.1125886 139.182223,91.6817559 142.837469,93" id="Fill-77" fill="#E6888C"></path>
                <path d="M136.903273,154 L133,152.630391 C133,152.630391 133.807232,149.005789 136.964757,142.161795 C140.123274,135.318813 142.002517,133 142.002517,133 L146,135.161795 C146,135.161795 141.034633,141.754559 136.903273,154" id="Fill-78" fill="#182646"></path>
                <polygon id="Fill-79" fill="#EDB39F" points="407.333333 123 396 122.726813 398.266246 111 413 116.18145"></polygon>
                <path d="M393.856895,133 L347.143105,133 C344.302054,133 342,130.694678 342,127.851893 L342,86.1481071 C342,83.3042927 344.302054,81 347.143105,81 L393.856895,81 C396.697946,81 399,83.3042927 399,86.1481071 L399,127.851893 C399,130.694678 396.697946,133 393.856895,133" id="Fill-80" fill="#C2EFFF"></path>
                <path d="M413,113.515845 L402.089871,106 L393,112.771294 C393,112.771294 396.775425,116.156438 401.251349,112.771294 C401.251349,112.771294 402.370071,118.864353 410.622457,119" id="Fill-81" fill="#FFC3A9"></path>
                <path d="M531.339903,321.141958 L531.339903,322.641958 C531.339903,324.501748 530.382647,326.224126 528.82237,327.173427 L521.36601,331.704895 C519.898899,332.595455 519,334.212937 519,335.959441 L519,336.021329 C519,336.561538 519.42795,337 519.955209,337 L549.450985,337 C549.964935,337 550.386742,336.582517 550.406194,336.055944 L551,319 L531.339903,321.141958 Z" id="Fill-82" fill="#000000"></path>
                <path d="M471.495008,321.141958 C471.495008,323.932168 470.041594,326.514685 467.670725,327.938112 L461.447583,331.673427 C459.929895,332.583916 459,334.236014 459,336.021329 C459,336.561538 459.432292,337 459.966178,337 L492.033555,337 C492.602688,337 493.049493,336.502797 492.995586,335.929021 L491.402221,319 L471.495008,321.141958 Z" id="Fill-83" fill="#000000"></path>
                <path d="M542.561806,175.953145 L540.333955,180.715249 L548.128366,193.182088 L553,187.859434 L550.165112,254.786027 L551.606061,330.038589 L525.255088,329.132452 L517.462721,253.683441 L513.333022,195.424289 L491.913978,254.256333 L492.039678,332 L465.315694,330.31835 L461,248.264104 C461,248.264104 478.259709,175.042894 478.468186,170 C486.750067,170.770371 496.63232,174.833073 514.585933,175.392595 C532.540567,175.953145 542.561806,175.953145 542.561806,175.953145" id="Fill-84" fill="#182646"></path>
                <path d="M447.004798,120.024406 L474.688678,88.4499716 C477.726464,84.9863182 481.731006,82.5172811 486.184031,81.3651324 L509.95984,75.2110728 L513.483056,80.1512063 C514.924979,82.1723572 517.193056,83.4408534 519.664336,83.6066227 C522.420922,83.7929846 525.090274,82.5872955 526.777477,80.3921382 L530.924671,75 C530.924671,75 557.761871,82.0817504 561.535499,85.8676759 C564.308505,88.6497186 578.173537,118.458348 585.33286,134.074648 C588.115103,140.142219 587.38234,147.254858 583.378825,152.589337 C571.576614,168.317866 553.148746,187.671698 553.148746,187.671698 L548.256473,193 L540.429042,180.519934 L542.666331,175.752777 C542.666331,175.752777 537.501068,175.752777 527.944356,175.546852 C524.160465,175.465512 519.686914,175.351224 514.571939,175.191632 C511.402789,175.092788 508.496366,174.881715 505.79212,174.603717 C493.11552,173.299184 485.155699,170.428594 478.301181,169.793316 C478.511568,164.745072 481.236339,123.728991 481.236339,123.728991 L454.567449,146.610314 C452.312714,148.544976 449.113801,148.914611 446.479343,147.544182 L403,124.920265 L410.131614,111.94598 L447.004798,120.024406 Z" id="Fill-85" fill="#9654DE"></path>
                <path d="M555.502394,116.493451 L562,141 L481,135.410895 C481.436047,128.808758 481.761286,123.919958 481.761286,123.919958 L482.562585,110 L555.502394,116.493451 Z" id="Fill-86" fill="#B68CED"></path>
                <polyline id="Stroke-87" stroke="#FFFFFF" stroke-width="0.5" points="543 175 562 141.848495 554.482786 114"></polyline>
                <path d="M520,197 L503,193" id="Stroke-88" stroke="#000000"></path>
                <path d="M509,194 L509,178" id="Stroke-89" stroke="#000000"></path>
                <polygon id="Fill-90" fill="#000000" points="483 101 481.221891 123.568788 461 141"></polygon>
                <path d="M539,179 L549,196" id="Stroke-91" stroke="#000000"></path>
                <path d="M520.205614,49 C520.205614,49 519.850008,53.296355 521.91065,56.7186664 C521.91065,56.7186664 523.413375,53.7456872 525.141353,55.1121497 C526.952757,56.544268 525.708655,59.0238024 524.2539,58.7796447 C524.2539,58.7796447 525.745154,65.0025887 530.01035,68.5346684 C530.594337,72.4822267 531,75.405964 531,75.405964 L526.785904,80.7784594 C525.07044,82.9656201 522.358026,84.166917 519.556971,83.9812341 C517.045824,83.8160686 514.741159,82.5521934 513.275975,80.5384052 L509.695923,75.615242 L511.045351,67.3723546 C509.121321,67.111783 507.773978,65.3698511 508.031558,63.47609 L509.695923,51.2353767 C509.695923,51.2353767 515.731852,51.724718 520.205614,49" id="Fill-92" fill="#FFC3A9"></path>
                <path d="M511.183672,40.5929405 C515.065474,42.8930002 525.292568,42.4963668 526.765509,48.6322756 C527.676691,52.4215229 529.069233,61.561697 530,68 C525.783205,64.4334059 524.309233,58.1525136 524.309233,58.1525136 C525.748159,58.3989855 526.976812,55.8949134 525.187432,54.4502563 C523.47948,53.0708419 521.99314,56.0720003 521.99314,56.0720003 C519.95741,52.6162151 520.308895,48.2791372 520.308895,48.2791372 C517.149649,50.2436636 513.203941,50.553307 511.206348,50.5698765 C510.489978,50.5760901 509.77773,50.5263815 509.074759,50.3886471 C495.603897,47.7654814 500.864841,34.4756724 511.183672,40.5929405" id="Fill-93" fill="#070707"></path>
                <polyline id="Stroke-94" stroke="#070707" stroke-width="0.75" points="513.228482 56 513 59.9906405 515 60"></polyline>
                <path d="M516.002134,55.2481337 C515.983134,55.4031337 516.093134,55.5441337 516.248134,55.5631337 C516.403134,55.5821337 516.544134,55.4721337 516.564134,55.3171337 C516.582134,55.1631337 516.473134,55.0211337 516.317134,55.0021337 C516.163134,54.9831337 516.022134,55.0931337 516.002134,55.2481337 Z" id="Stroke-95" stroke="#070707" stroke-width="0.75"></path>
                <path d="M510.002134,55.2481337 C509.983134,55.4031337 510.093134,55.5441337 510.248134,55.5631337 C510.403134,55.5821337 510.544134,55.4721337 510.564134,55.3171337 C510.582134,55.1631337 510.473134,55.0211337 510.317134,55.0021337 C510.162134,54.9831337 510.022134,55.0931337 510.002134,55.2481337 Z" id="Stroke-96" stroke="#070707" stroke-width="0.75"></path>
                <path d="M514.013186,55.7549355 C514.15371,57.1285421 515.381894,58.1273583 516.755286,57.9868119 C518.128678,57.8453286 519.127338,56.6178902 518.986814,55.2442836 C518.845353,53.871614 517.618106,52.8718608 516.244714,53.0133441 C514.871322,53.1538905 513.872662,54.3813289 514.013186,55.7549355 Z" id="Stroke-97" stroke="#070707" stroke-width="0.75"></path>
                <path d="M507.013186,55.7557164 C507.15371,57.128386 508.381894,58.1281392 509.755286,57.9866559 C511.128678,57.8461095 512.127338,56.6186711 511.986814,55.2450645 C511.845353,53.8714579 510.618106,52.8726417 509.244714,53.0131881 C507.871322,53.1546714 506.872662,54.3821098 507.013186,55.7557164 Z" id="Stroke-98" stroke="#070707" stroke-width="0.75"></path>
                <path d="M514,55.037 L512,55" id="Stroke-99" stroke="#070707" stroke-width="0.75"></path>
                <path d="M517,61.6627419 C517,61.6627419 515.771545,63.1536072 513.52911,62.9870097 C511.288798,62.8216282 511,61 511,61" id="Stroke-100" stroke="#070707" stroke-width="0.75"></path>
                <polygon id="Fill-101" fill="#070707" points="519 67 510 75 511.40058 67"></polygon>
                <path d="M481,123 L483,101" id="Stroke-102" stroke="#FFFFFF" stroke-width="0.5"></path>
                <polygon id="Fill-103" fill="#000000" points="513 195.512151 500 231 502.2739 193"></polygon>
                <path d="M463.002321,247 C463.002321,247 462.807011,249.327346 466,250" id="Stroke-104" stroke="#FFFFFF" stroke-width="0.75"></path>
                <path d="M545,256.891102 C545,256.891102 547.514617,257.682184 549,255" id="Stroke-105" stroke="#000000"></path>
                <path d="M491,254 L485,257" id="Stroke-106" stroke="#000000"></path>
                <path d="M565.413473,142.015684 C564.436436,142.23424 563.458451,142.290396 562.452036,142.197055 C561.846482,142.140898 561.852168,142.900531 562.452036,142.955929 C563.539002,143.056859 564.611753,142.983248 565.66555,142.747239 C566.252152,142.616712 566.002917,141.884399 565.413473,142.015684" id="Fill-107" fill="#182646"></path>
                <path d="M447.986232,123.414445 C447.788582,122.486133 447.735768,121.540875 447.850197,120.590909 C447.922215,119.99871 447.151621,119.742624 447.078802,120.341413 C446.942768,121.464614 446.979577,122.562394 447.214837,123.664882 C447.339668,124.252373 448.111863,124.002878 447.986232,123.414445" id="Fill-108" fill="#182646"></path>
                <polygon id="Fill-109" fill="#9654DE" points="492 332 491.755205 323.936823 463 321 463.90268 330.22723"></polygon>
                <polygon id="Fill-110" fill="#9654DE" points="552.580292 333 553 324.429021 524 321 524.139903 330.286364"></polygon>
                <path d="M285.99581,370.352835 C285.661419,370.250043 285.308175,370.154747 284.940047,370.05945 C282.055551,369.313138 280.430231,366.004522 281.447296,363 L272.496129,363 C272.384004,364.744251 272.279817,366.51527 272.190514,368.34518 L272,371.014558 C272.435602,371.461061 272.968445,371.943969 273.487396,372.235212 C274.638416,372.883016 283.650111,373.570437 285.120638,372.235212 C285.835064,371.587409 286.032524,370.93211 285.99581,370.352835" id="Fill-111" fill="#FFC3A9"></path>
                <path d="M292.548478,372.016332 C290.315744,370.993787 286.735972,370 286.735972,370 L283.802492,372.484999 C280.525829,372.895083 274.707159,372.372093 273.782419,371.872537 C273.24607,371.582816 272.694308,371.102432 272.242213,370.658264 L272.005891,373.82283 C271.918554,374.996627 272.813497,376 273.948872,376 L288.563875,376 C295.120282,375.945677 294.781211,373.038878 292.548478,372.016332" id="Fill-112" fill="#182646"></path>
                <path d="M227.723199,254 C238.235054,252.674377 254.743569,249.802537 272,243.71972 C263.1984,209.172082 262.665933,198.988698 262.691582,196.788947 C263.292787,197.527008 263.939133,198.306301 264.621388,199.104149 C265.826876,194.968534 268.277864,187.804396 271.617322,184.310977 C269.525416,179.986724 263.673413,171.300078 262.638232,170.7053 C261.181387,169.869312 240.663471,162.520659 240.663471,162.520659 C237.516891,161.408414 234.015333,162.106273 231.532541,164.345195 C227.904792,167.61699 222.350314,172.715382 217,177.975611 C218.942118,180.503161 221.988155,185.19129 223.166968,191.003004 C223.534257,190.678298 223.913858,190.349469 224.303718,190.017548 C225.7739,195.057184 230.494283,212.917019 229.271354,230.536675 C228.772743,237.706998 228.208472,245.591673 227.723199,254" id="Fill-113" fill="#F7734A"></path>
                <path d="M235.393295,173.563583 L237.253931,172.965687 C238.239034,172.652927 239.314251,172.828546 240.132439,173.440254 L242.14463,174.948805 C243.563916,176.013374 245.440936,176.35376 247.165379,175.859461 L250.781178,174.823504 C251.657735,174.573887 252.593685,174.705109 253.356577,175.186582 L254.834231,176.11697 C255.76711,176.704999 256.82799,177 257.889894,177 C258.852469,177 259.818115,176.75729 260.690577,176.269897 C261.431964,175.859461 262.324906,175.757838 263.141046,175.997588 L263.748287,176.176168 C265.175765,176.594497 266.708716,176.43269 268,175.772638 C267.517689,175.069173 267.042545,174.393335 266.587882,173.761894 C265.926368,174.033216 265.177813,174.086494 264.474314,173.880289 L263.867073,173.70171 C262.393515,173.268581 260.779666,173.446174 259.441278,174.19305 C258.425454,174.758386 257.184347,174.728788 256.19822,174.107213 L254.719542,173.176825 C253.341217,172.307608 251.646471,172.067858 250.071535,172.522692 L246.454712,173.558649 C245.503401,173.829971 244.460953,173.644486 243.674509,173.053497 L241.662319,171.545933 C240.184664,170.437952 238.241083,170.117299 236.466463,170.687569 L234.604803,171.285464 C233.64018,171.594278 232.576228,171.428524 231.762136,170.837536 L227.86166,168 C227.257491,168.534751 226.635914,169.086275 226,169.654571 L230.261953,172.753563 C231.730391,173.821092 233.648373,174.123986 235.393295,173.563583" id="Fill-114" fill="#F15A24"></path>
                <path d="M269.597825,179.814067 L268.297124,181.765254 C267.825633,182.474319 267.066121,182.96111 266.215387,183.100912 L264.933135,183.310111 C264.439094,183.390573 263.957353,183.537415 263.498161,183.744602 L260.141347,185.274373 C259.279338,185.667628 258.261531,185.646507 257.417971,185.219056 L254.565448,183.774775 C253.030026,182.998324 251.17891,182.965133 249.613763,183.690291 L246.239524,185.254258 C245.272967,185.701824 244.156762,185.633432 243.252728,185.068191 L239.748317,182.87562 C238.402516,182.0348 236.752296,181.798444 235.213799,182.222878 L232.361276,183.018439 C230.860703,183.437844 229.273007,182.689553 228.664168,181.28148 L227.876982,179.460038 C227.358342,178.261164 226.418434,177.279536 225.23048,176.696191 L223.956428,176.070605 C223.110819,175.656229 222.511204,174.896875 222.313383,173.989674 L222.097112,173 C221.402175,173.64369 220.705187,174.295427 220,174.956216 C220.445867,176.39245 221.457524,177.581266 222.841248,178.260158 L224.1153,178.885745 C224.773338,179.208596 225.293004,179.752716 225.581024,180.416521 L226.368209,182.237964 C227.46699,184.779536 230.332838,186.128269 233.042888,185.372938 L235.895412,184.578383 C236.746146,184.342028 237.66248,184.472777 238.406616,184.939453 L241.911028,187.132024 C243.540748,188.150865 245.557911,188.27558 247.30448,187.466944 L250.679744,185.902977 C251.546878,185.502682 252.570834,185.518774 253.421569,185.950248 L256.275117,187.393523 C257.072553,187.797841 257.956087,188 258.840646,188 C259.645256,188 260.450891,187.832037 261.192978,187.4941 L264.545692,185.965335 C264.800912,185.849671 265.069458,185.768204 265.343128,185.723951 L266.626404,185.513745 C268.162851,185.262304 269.534277,184.38427 270.386036,183.104935 L271,182.183653 C270.582833,181.442403 270.109291,180.642819 269.597825,179.814067" id="Fill-115" fill="#F15A24"></path>
                <path d="M236.232997,195.884391 L241.558948,198.715431 C243.032803,199.49802 244.757592,199.575968 246.290851,198.930565 L250.986907,196.954865 C251.869785,196.583836 252.85099,196.642037 253.681633,197.114916 L257.500955,199.279768 C258.338768,199.754726 259.279003,200 260.227433,200 C260.600249,200 260.973066,199.962585 261.343834,199.885678 L263,199.54271 C262.889384,198.322577 262.857633,197.50777 262.854561,196.99124 L260.844014,197.407998 C260.117841,197.556617 259.36299,197.438137 258.715682,197.072305 L254.898408,194.906414 C253.3969,194.055231 251.623972,193.949223 250.033356,194.618529 L245.337301,196.594229 C244.487197,196.951747 243.530574,196.908096 242.716318,196.47471 L237.389343,193.64367 C236.08346,192.949421 234.524595,192.810155 233.119363,193.258091 L226,195.533109 C226.183336,196.306345 226.372817,197.127388 226.56537,198.003514 L233.867045,195.670296 C234.645453,195.421904 235.508872,195.499851 236.232997,195.884391" id="Fill-116" fill="#F15A24"></path>
                <path d="M235.09365,207.826018 L243.881538,210.882418 C245.310825,211.379972 246.839469,211.259684 248.184923,210.543426 L251.623077,208.715053 C252.489343,208.254679 253.527413,208.249211 254.397818,208.696463 L259.635776,211.396375 C260.40993,211.795511 261.259636,212 262.112448,212 C262.552308,212 262.993203,211.946417 263.425818,211.837065 L265,211.437928 C264.836476,210.511713 264.687441,209.642361 264.54979,208.815657 L262.838993,209.248693 C262.136252,209.426937 261.390042,209.341642 260.740084,209.00593 L255.503161,206.304925 C253.927944,205.494624 252.055692,205.506652 250.48979,206.338824 L247.052671,208.167197 C246.308531,208.563053 245.46193,208.629758 244.669147,208.35419 L235.881259,205.297789 C234.95186,204.976293 233.951049,204.912869 232.989566,205.118451 L228,206.193386 C228.130406,207.052896 228.257706,207.930996 228.378797,208.827686 L233.491524,207.726507 C234.024531,207.611687 234.578238,207.64668 235.09365,207.826018" id="Fill-117" fill="#F15A24"></path>
                <path d="M261.964058,219.618636 L257.42084,217.520816 C255.797392,216.769196 253.893548,216.83537 252.326991,217.691684 L246.372652,220.947058 C245.483718,221.432006 244.408869,221.458674 243.495552,221.015208 L240.092202,219.359866 C238.200549,218.442316 235.97872,218.6359 234.288221,219.868518 L230.026414,222.974754 C230.036573,223.980206 230.026414,224.988622 230,226 L235.772488,221.792507 C236.707139,221.109037 237.937424,221.000393 238.985859,221.51102 L242.390225,223.165375 C244.03704,223.966379 245.979489,223.91897 247.585667,223.041915 L253.53899,219.786541 C254.40659,219.310482 255.459088,219.274926 256.360214,219.691724 L260.903432,221.788557 C262.281027,222.425607 263.886189,222.479929 265.303405,221.938683 L267,221.291757 C266.81307,220.470012 266.638331,219.681847 266.467655,218.912449 L264.400247,219.700613 C263.613921,219.999879 262.726002,219.969261 261.964058,219.618636" id="Fill-118" fill="#F15A24"></path>
                <path d="M268.361805,231.846146 L260.681678,230.129136 C259.355325,229.834822 257.970502,230.047323 256.784683,230.72839 L250.411419,234.396161 C249.694388,234.808413 248.866572,234.910414 248.076709,234.683037 L240.091921,232.385899 C238.817884,232.020397 237.458705,232.133023 236.260577,232.702526 L229.195927,236.061108 C229.131302,237.030114 229.065651,238.009744 229,239 L237.302785,235.05279 C237.966474,234.738288 238.720433,234.6756 239.424129,234.878539 L247.407891,237.174614 C248.831695,237.585804 250.329355,237.400928 251.623909,236.657174 L257.997173,232.989403 C258.652656,232.61115 259.41995,232.493212 260.155445,232.656838 L267.834547,234.372786 C268.555681,234.535349 269.286047,234.531099 270,234.397223 C269.797918,233.542968 269.601992,232.704651 269.412219,231.884396 C269.065501,231.932209 268.711601,231.923709 268.361805,231.846146" id="Fill-119" fill="#F15A24"></path>
                <path d="M246.972752,212.477427 L217.37947,235.442419 C216.220722,236.340933 214.552453,236.131451 213.653601,234.973138 L197.557477,214.246729 C196.658625,213.088416 196.869213,211.421801 198.026934,210.52226 L227.620217,187.557267 C228.778965,186.658753 230.446207,186.869262 231.346086,188.026548 L247.44221,208.752958 C248.341062,209.911271 248.131501,211.578913 246.972752,212.477427" id="Fill-120" fill="#C2EFFF"></path>
                <path d="M233,192 C237.969062,198.310823 246.571472,209.238623 246.571472,209.238623 C247.262109,210.115665 247.100581,211.378646 246.212176,212.058635 C246.212176,212.058635 245.765902,212.39965 244.982077,213" id="Stroke-121" stroke="#FFFFFF" stroke-width="0.5"></path>
                <path d="M233.720493,217.353174 C232.461693,216.524546 226.482132,217.560075 226.482132,217.560075 L216.587111,197.923946 C216.587111,197.923946 219.372453,194.770243 223.841038,190.903654 C222.652806,185.147301 219.58208,180.503297 217.621756,178 C209.994236,185.366493 202.77663,193.05358 202.042936,196.404966 C200.923195,201.512961 222.07685,225.048456 222.07685,225.048456 C222.07685,225.048456 223.440464,228.120218 228.790106,226.463986 C228.790106,226.463986 229.839279,228.430569 231.517333,227.913317 C233.195387,227.396064 235.503361,224.082576 235.922615,222.633246 C236.341869,221.183915 234.979293,218.181802 233.720493,217.353174" id="Fill-122" fill="#FFC3A9"></path>
                <path d="M283.004811,172.125542 C283.004811,172.125542 283.781522,170.35178 283.499558,167.116059 C283.216546,163.881371 281.767943,161.793742 281.767943,161.793742 C281.767943,161.793742 281.979678,158.176012 281.910498,156.64591 C281.83922,155.114776 280.991232,155.254158 280.709268,155.985137 C280.426256,156.715085 279.755413,160.820135 279.755413,160.820135 C279.755413,160.820135 279.366533,155.219054 279.261714,154.837045 C279.154798,154.454003 278.784786,154.123617 278.378087,154.141169 C277.971388,154.15872 277.495509,154.52421 277.495509,154.52421 C277.354003,154.141169 276.824665,153.828334 276.258641,154.106065 C275.693665,154.384829 275.835171,161.411733 275.835171,161.411733 C274.563713,159.25493 271.882435,156.063604 271.315363,157.515239 C270.874074,158.64578 277.072039,166.00307 275.693665,166.211627 C274.317387,166.421215 270.926483,164.7507 270.7137,165.794514 C270.501965,166.838328 272.197941,167.151163 273.787002,168.299255 C275.377111,169.447348 275.48193,172.47348 275.48193,172.47348 L273.575267,187.083783 C273.575267,187.083783 272.990375,185.862386 272.125616,184.110306 C268.725278,187.597946 266.227434,194.751843 265,198.88064 C269.123591,203.613424 274.413821,208.922319 277.45987,208.998721 C280.70822,209.081317 283.786763,205.152817 283.957618,200.51089 C284.241679,192.858316 283.004811,172.125542 283.004811,172.125542" id="Fill-123" fill="#FFC3A9"></path>
                <path d="M272.963007,198 L274,186.533188 C273.968974,186.473207 273.661098,185.899709 273.170644,185 L272,197.932653 L272.963007,198 Z" id="Fill-124" fill="#EAA38B"></path>
                <path d="M277.038007,206.376254 C272.780175,206.173568 267.1736,197.451018 267.1736,197.451018 L269.042116,188 C267.199281,191.39149 265.813559,195.45024 265,198.165438 C269.041089,202.764017 274.225475,207.923496 277.21058,207.998751 C279.629687,208.059958 281.95018,205.865524 283,202.830241 C282.466872,203.766413 280.582948,206.544825 277.038007,206.376254" id="Fill-125" fill="#FFC3A9"></path>
                <polyline id="Stroke-126" stroke="#FFFFFF" stroke-width="0.5" points="262 178 267 189.333667 263.535417 195"></polyline>
                <path d="M225,189 C225,189 229.651587,184.540186 232,183" id="Stroke-127" stroke="#070707" stroke-width="0.75"></path>
                <path d="M233,220.448635 L233.301976,220 C234.131703,220.60078 234.669802,221.539012 235,222.305592 C234.926623,222.514304 234.825964,222.747399 234.701787,223 C234.43556,222.256827 233.904045,221.104031 233,220.448635" id="Fill-128" fill="#EAA38B"></path>
                <path d="M231,222.412679 L231.277922,222 C232.193939,222.662978 232.726407,223.774522 233,224.52183 C232.88658,224.683313 232.768831,224.8439 232.646753,225 C232.439827,224.35317 231.937662,223.092703 231,222.412679" id="Fill-129" fill="#EAA38B"></path>
                <path d="M230,224.455596 L230.284953,224 C231.170883,224.690327 231.707057,225.820403 232,226.639485 C231.863293,226.774183 231.725699,226.894024 231.58988,227 C231.334221,226.244305 230.835331,225.107296 230,224.455596" id="Fill-130" fill="#EAA38B"></path>
                <path d="M319.856988,168 L273.143012,168 C270.303041,168 268,165.694678 268,162.851893 L268,121.148107 C268,118.304293 270.303041,116 273.143012,116 L319.856988,116 C322.696959,116 325,118.304293 325,121.148107 L325,162.851893 C325,165.694678 322.696959,168 319.856988,168" id="Fill-131" fill="#C2EFFF"></path>
                <path d="M274.098512,168.222206 C274.098512,168.222206 270.82012,165.784275 271.007758,165.57948 C271.197504,165.375774 272.54681,164.201471 275.192714,165.925888 C275.192714,165.925888 280.680594,165.980355 281,170" id="Fill-132" fill="#FFC3A9"></path>
                <path d="M245.209088,165.424982 L252.322773,139 L268,142.763139 L265.139028,159.134637 C264.804603,161.045926 263.198747,162.469401 261.270701,162.563685 L258.172165,162.716383 L256.778384,168.42463 C255.972908,171.7225 252.609278,173.693229 249.356783,172.773965 C246.204209,171.882372 244.352632,168.603973 245.209088,165.424982" id="Fill-133" fill="#FFC3A9"></path>
                <path d="M245,139.895179 C245,139.895179 239.975921,132.723916 232.775418,135.740969 C223.887679,139.465928 222.982531,159.80158 211,159.958323 C211,159.958323 216.575304,166.404264 225.598307,164.719018 C237.561515,162.485681 240.595286,150.161354 242.929347,149.377637 C242.443211,144.29731 245,139.895179 245,139.895179" id="Fill-134" fill="#182646"></path>
                <path d="M245.142988,139.498416 C245.142988,139.498416 242.573174,143.913683 243.061787,149.009171 C243.061787,149.009171 243.017832,154.541357 247.005439,158 C247.005439,158 250.529989,155.652109 251.507214,152.58598 C251.507214,152.58598 250.187552,151.642714 250.499323,150.149722 C250.813139,148.655703 253.579216,148.302235 254.08725,150.895704 C254.08725,150.895704 267.592574,150.716915 269.932393,143.035151 C271.104858,139.183994 256.794039,126.999623 245.142988,139.498416" id="Fill-135" fill="#182646"></path>
                <path d="M272.703359,243.016452 C272.702328,243.011311 272.700265,243.00617 272.699233,243 C255.403981,249.049281 238.857601,251.904773 228.321804,253.223008 C227.397575,269.106613 228.354812,290.007123 229.057268,308.627969 C229.057268,308.627969 219.821168,325.016452 217,366 L226.307274,366 L246.286504,311.399142 L254.557115,263.173526 C254.557115,263.173526 272.427947,295.481604 278.537554,305.579164 C278.537554,305.579164 273.325357,336.038422 272.990118,363.366614 L282.177737,363.366614 L298,303.91646 L272.703359,243.016452 Z" id="Fill-136" fill="#182646"></path>
                <path d="M230.995601,373.353452 C230.662184,373.250667 230.30892,373.154305 229.940771,373.060085 C227.056113,372.312748 225.430702,369.005408 226.447825,366.001071 L226.447825,366 L217.495165,366 C217.384026,367.744143 217.279833,369.515053 217.190524,371.344851 L217,374.015134 C217.435626,374.460539 217.968499,374.944487 218.486487,375.235713 C219.637571,375.883477 228.650762,376.569785 230.121372,375.235713 C230.835839,374.58795 231.033309,373.932692 230.995601,373.353452" id="Fill-137" fill="#FFC3A9"></path>
                <polyline id="Stroke-138" stroke="#070707" stroke-width="0.75" points="263 152 262.626608 156 261 155.896947"></polyline>
                <path d="M259,158 C259,158 260.782875,159.581 264,158.482" id="Stroke-139" stroke="#070707" stroke-width="0.75"></path>
                <path d="M253,154 C253,154.552254 252.552025,155 251.999487,155 C251.44695,155 251,154.552254 251,154 C251,153.447746 251.44695,153 251.999487,153 C252.552025,153 253,153.447746 253,154" id="Fill-140" fill="#F7931E"></path>
                <path d="M258,163 L254.083906,163.203749 C254.083906,163.203749 253.33884,168.111856 256.289143,170 C256.429967,169.663974 256.549817,169.313014 256.63471,168.941786 L258,163 Z" id="Fill-141" fill="#070707"></path>
                <path d="M260.635,152.317 C260.635,152.492 260.493,152.634 260.318,152.634 C260.143,152.634 260,152.492 260,152.317 C260,152.142 260.143,152 260.318,152 C260.493,152 260.635,152.142 260.635,152.317 Z" id="Stroke-142" stroke="#070707" stroke-width="0.75"></path>
                <path d="M265.635,152.317 C265.635,152.492 265.493,152.634 265.318,152.634 C265.143,152.634 265,152.492 265,152.317 C265,152.142 265.143,152 265.318,152 C265.493,152 265.635,152.142 265.635,152.317 Z" id="Stroke-143" stroke="#070707" stroke-width="0.75"></path>
                <path d="M294.997686,303 C294.997686,303 295.192801,305.326971 292,306" id="Stroke-144" stroke="#FFFFFF" stroke-width="0.75"></path>
                <path d="M243.997686,310 C243.997686,310 244.192801,312.326971 241,313" id="Stroke-145" stroke="#FFFFFF" stroke-width="0.75"></path>
                <path d="M276,166.006162 C276,166.006162 279.032641,165.72275 280,169" id="Stroke-146" stroke="#070707" stroke-width="0.75"></path>
                <path d="M283,175.454454 C282.93999,174.365372 282.891361,173.51641 282.861355,173 C279.287636,173.767582 276.650285,173.581715 275.31971,173.382786 L275,175.802076 C275.706674,175.906564 276.655458,176 277.843249,176 C279.255561,176 281,175.85432 283,175.454454" id="Fill-147" fill="#F7931E"></path>
                <path d="M236.548478,375.016332 C234.314717,373.993787 230.734945,373 230.734945,373 L227.801464,375.484999 C224.525829,375.895083 218.707159,375.372093 217.782419,374.872537 C217.24607,374.582816 216.694308,374.102432 216.242213,373.658264 L216.005891,376.823895 C215.918554,377.997692 216.813497,379 217.948872,379 L232.563875,379 C239.120282,378.945677 238.781211,376.038878 236.548478,375.016332" id="Fill-148" fill="#182646"></path>
                <path d="M213.462007,198 L216.53871,198 C217.153285,198 217.154241,197 216.53871,197 L213.462007,197 C212.846476,197 212.84552,198 213.462007,198" id="Fill-149" fill="#182646"></path>
            </g>
        </g>
    </g>
</svg>