<?xml version="1.0" encoding="UTF-8"?>
<svg width="644px" height="454px" viewBox="0 0 644 454" version="1.1" xmlns="http://www.w3.org/2000/svg" xmlns:xlink="http://www.w3.org/1999/xlink">
    <!-- Generator: Sketch 51.1 (57501) - http://www.bohemiancoding.com/sketch -->
    <title>Group 134</title>
    <desc>Created with Sketch.</desc>
    <defs>
        <polygon id="path-1" points="0.0167 0.731 337.8587 0.731 337.8587 239.8959 0.0167 239.8959"></polygon>
    </defs>
    <g id="Page-1" stroke="none" stroke-width="1" fill="none" fill-rule="evenodd">
        <g id="careers" transform="translate(-624.000000, -1460.000000)">
            <g id="Group-134" transform="translate(624.000000, 1459.000000)">
                <path d="M30.3792,445.2992 C70.4552,427.4502 111.5752,409.8792 153.7292,392.6052 C165.6202,387.7322 177.5952,382.8842 189.6472,378.0582 C189.7392,378.0212 189.5822,377.9662 189.4892,378.0042 C146.6052,395.1762 104.7292,412.6472 63.9182,430.4082 C52.5932,435.3372 41.3512,440.2882 30.1872,445.2602 C30.1002,445.2992 30.2922,445.3382 30.3792,445.2992" id="Fill-1" fill="#CECECE"></path>
                <path d="M300.093,454.2416 C313.594,431.0826 324.173,407.7246 331.733,384.2476 C333.87,377.6106 335.762,370.9646 337.425,364.3106 C337.437,364.2626 337.215,364.2606 337.202,364.3096 C331.322,387.8366 322.478,411.2736 310.636,434.5336 C307.287,441.1106 303.696,447.6736 299.879,454.2206 C299.851,454.2686 300.065,454.2896 300.093,454.2416" id="Fill-3" fill="#CECECE"></path>
                <path d="M474.2688,377.0326 C502.6548,394.5756 531.0398,412.1186 559.4258,429.6616 C567.4098,434.5956 575.3928,439.5306 583.3758,444.4636 C583.4408,444.5036 583.6198,444.4686 583.5538,444.4286 C555.1688,426.8856 526.7838,409.3426 498.3978,391.7986 C490.4148,386.8656 482.4308,381.9306 474.4478,376.9966 C474.3828,376.9566 474.2048,376.9926 474.2688,377.0326" id="Fill-5" fill="#CECECE"></path>
                <g id="Group-9" transform="translate(135.000000, 0.269000)">
                    <mask id="mask-2" fill="white">
                        <use xlink:href="#path-1"></use>
                    </mask>
                    <g id="Clip-8"></g>
                    <path d="M337.8587,239.8959 L0.0167,239.8959 L0.0167,5.7309 C0.0167,2.9699 2.2557,0.7309 5.0167,0.7309 L332.8587,0.7309 C335.6207,0.7309 337.8587,2.9699 337.8587,5.7309 L337.8587,239.8959 Z" id="Fill-7" fill="#DDEEFF" mask="url(#mask-2)"></path>
                </g>
                <polygon id="Fill-10" fill="#FFFFFF" points="143.27 231.724 464.606 231.724 464.606 23.558 143.27 23.558"></polygon>
                <polygon id="Fill-12" fill="#BEDEFC" points="142.961 41.037 464.496 41.037 464.496 22.528 142.961 22.528"></polygon>
                <path d="M162.9554,31.3114 C162.9554,33.0014 161.5854,34.3714 159.8944,34.3714 C158.2054,34.3714 156.8354,33.0014 156.8354,31.3114 C156.8354,29.6214 158.2054,28.2504 159.8944,28.2504 C161.5854,28.2504 162.9554,29.6214 162.9554,31.3114" id="Fill-13" fill="#FFFFFF"></path>
                <path d="M176.5569,31.3114 C176.5569,33.0014 175.1869,34.3714 173.4959,34.3714 C171.8059,34.3714 170.4359,33.0014 170.4359,31.3114 C170.4359,29.6214 171.8059,28.2504 173.4959,28.2504 C175.1869,28.2504 176.5569,29.6214 176.5569,31.3114" id="Fill-14" fill="#FFFFFF"></path>
                <path d="M190.1575,31.3114 C190.1575,33.0014 188.7875,34.3714 187.0975,34.3714 C185.4075,34.3714 184.0375,33.0014 184.0375,31.3114 C184.0375,29.6214 185.4075,28.2504 187.0975,28.2504 C188.7875,28.2504 190.1575,29.6214 190.1575,31.3114" id="Fill-15" fill="#FFFFFF"></path>
                <polygon id="Fill-16" fill="#CDE0FF" points="142.961 231.724 212.419 231.724 212.419 41.037 142.961 41.037"></polygon>
                <polygon id="Fill-17" fill="#C3D3FF" points="159.692 70.589 195.689 70.589 195.689 63.712 159.692 63.712"></polygon>
                <polygon id="Fill-18" fill="#C3D3FF" points="159.692 91.264 195.689 91.264 195.689 84.387 159.692 84.387"></polygon>
                <polygon id="Fill-19" fill="#C3D3FF" points="159.692 111.936 195.689 111.936 195.689 105.06 159.692 105.06"></polygon>
                <polygon id="Fill-20" fill="#C3D3FF" points="159.692 132.611 195.689 132.611 195.689 125.734 159.692 125.734"></polygon>
                <polygon id="Fill-21" fill="#C3D3FF" points="159.692 153.285 195.689 153.285 195.689 146.408 159.692 146.408"></polygon>
                <polygon id="Fill-22" fill="#C3D3FF" points="159.692 173.959 195.689 173.959 195.689 167.082 159.692 167.082"></polygon>
                <path d="M242.407,81.62 L295.171,81.62 L295.171,60.914 L242.407,60.914 L242.407,81.62 Z M241.739,82.287 L295.837,82.287 L295.837,60.247 L241.739,60.247 L241.739,82.287 Z" id="Fill-23" fill="#BEDEFC"></path>
                <polygon id="Fill-24" fill="#BEDEFC" points="254.827 93.49 283.783 93.49 283.783 92.823 254.827 92.823"></polygon>
                <polygon id="Fill-25" fill="#BEDEFC" points="254.827 104.865 283.783 104.865 283.783 104.198 254.827 104.198"></polygon>
                <polygon id="Fill-26" fill="#BEDEFC" points="298.95 71.945 322.047 71.945 322.047 71.278 298.95 71.278"></polygon>
                <polygon id="Fill-27" fill="#BEDEFC" points="320.5569 73.9174 320.0899 73.4404 321.7979 71.7704 320.0779 69.8964 320.5699 69.4464 322.7259 71.7964"></polygon>
                <polygon id="Fill-28" fill="#BEDEFC" points="374.8 154.128 375.467 154.128 375.467 131.031 374.8 131.031"></polygon>
                <polygon id="Fill-29" fill="#BEDEFC" points="374.9485 154.807 372.8275 152.638 373.3035 152.171 374.9735 153.879 376.8475 152.159 377.2985 152.651"></polygon>
                <path d="M334.273,91.788 L413.753,91.788 L413.753,50.055 L334.273,50.055 L334.273,91.788 Z M333.606,92.455 L414.42,92.455 L414.42,49.387 L333.606,49.387 L333.606,92.455 Z" id="Fill-30" fill="#BEDEFC"></path>
                <path d="M334.273,205.028 L413.753,205.028 L413.753,163.295 L334.273,163.295 L334.273,205.028 Z M333.606,205.695 L414.42,205.695 L414.42,162.628 L333.606,162.628 L333.606,205.695 Z" id="Fill-31" fill="#BEDEFC"></path>
                <path d="M334.273,123.631 L413.753,123.631 L413.753,104.348 L334.273,104.348 L334.273,123.631 Z M333.606,124.298 L414.42,124.298 L414.42,103.681 L333.606,103.681 L333.606,124.298 Z" id="Fill-32" fill="#BEDEFC"></path>
                <polygon id="Fill-33" fill="#BEDEFC" points="349.888 194.316 398.137 194.316 398.137 173.847 349.888 173.847"></polygon>
                <path d="M574.1799,386.6498 C545.1719,384.5368 515.6909,385.6598 486.7269,387.0898 C441.7939,389.3088 395.3739,384.8168 351.0219,391.6628 C347.7619,392.1658 332.2769,392.7388 315.3749,394.1828 C305.5809,389.7618 290.2849,390.3158 284.1639,390.1778 C260.5269,389.6488 237.2379,386.4128 213.5719,385.0308 C148.2909,381.2208 34.3859,386.4478 4.3979,405.0198 C-12.5301,415.5028 21.0639,424.3528 76.7879,427.7728 C103.3669,429.4038 130.3239,428.6558 156.8389,427.1718 C197.9719,424.8718 240.4529,429.2788 281.0639,422.3528 C283.2839,421.9748 288.3429,421.4228 294.2409,420.4558 C315.5309,423.6308 341.8979,423.7028 347.6989,423.8328 C373.5249,424.4098 398.9739,427.6918 424.8299,429.1208 C496.1569,433.0608 608.0119,428.0248 640.7379,409.5108 C659.2099,399.0608 590.2809,387.8218 574.1799,386.6498" id="Fill-34" fill="#EBF5FF" style="mix-blend-mode: multiply;"></path>
                <path d="M200.5198,248.9642 L200.5198,375.1072 L200.5198,409.3542 C200.5198,409.8372 201.2698,409.8372 201.2698,409.3542 L201.2698,283.2112 L201.2698,248.9642 C201.2698,248.4822 200.5198,248.4812 200.5198,248.9642" id="Fill-35" fill="#182646"></path>
                <path d="M197.5843,247.1703 L111.4973,247.1703 C111.0153,247.1703 111.0143,247.9203 111.4973,247.9203 L197.5843,247.9203 C198.0663,247.9203 198.0673,247.1703 197.5843,247.1703" id="Fill-36" fill="#182646"></path>
                <path d="M109.1634,247.5409 C108.8274,289.8469 107.9894,332.1499 106.5874,374.4339 C106.1994,386.1169 105.7654,397.7969 105.2784,409.4769 C105.2584,409.9589 106.0084,409.9579 106.0284,409.4769 C107.7904,367.2059 108.8904,324.9079 109.5164,282.6059 C109.6874,270.9179 109.8204,259.2299 109.9134,247.5409 C109.9174,247.0589 109.1674,247.0579 109.1634,247.5409" id="Fill-37" fill="#182646"></path>
                <path d="M106.8089,357.7504 C89.1269,357.8894 71.4459,358.0294 53.7649,358.1684 C51.2689,358.1874 48.7739,358.2084 46.2789,358.2274 C45.7959,358.2314 45.7939,358.9814 46.2789,358.9774 C63.9589,358.8374 81.6409,358.6984 99.3229,358.5594 C101.8179,358.5394 104.3139,358.5204 106.8089,358.5004 C107.2909,358.4964 107.2919,357.7464 106.8089,357.7504" id="Fill-38" fill="#182646"></path>
                <path d="M45.4925,357.7557 C45.3955,374.9427 45.3005,392.1287 45.2035,409.3147 C45.2005,409.7977 45.9505,409.7977 45.9535,409.3147 C46.0505,392.1287 46.1455,374.9427 46.2425,357.7557 C46.2455,357.2737 45.4955,357.2727 45.4925,357.7557" id="Fill-39" fill="#182646"></path>
                <path d="M105.8216,367.3134 L46.6956,367.3134 C46.2136,367.3134 46.2126,368.0634 46.6956,368.0634 L105.8216,368.0634 C106.3036,368.0634 106.3046,367.3134 105.8216,367.3134" id="Fill-40" fill="#182646"></path>
                <path d="M188.597,302.0389 L120.957,302.0389 C120.475,302.0389 120.474,302.7889 120.957,302.7889 L188.597,302.7889 C189.079,302.7889 189.08,302.0389 188.597,302.0389" id="Fill-41" fill="#182646"></path>
                <path d="M187.178,359.7455 L115.282,359.7455 C114.798,359.7455 114.798,360.4955 115.282,360.4955 L187.178,360.4955 C187.66,360.4955 187.661,359.7455 187.178,359.7455" id="Fill-42" fill="#182646"></path>
                <path d="M185.1155,220.6078 C184.1645,228.8058 183.2135,237.0038 182.2615,245.2018 C182.2065,245.6808 182.9565,245.6768 183.0115,245.2018 C183.9635,237.0038 184.9145,228.8058 185.8655,220.6078 C185.9215,220.1288 185.1715,220.1328 185.1155,220.6078" id="Fill-43" fill="#182646"></path>
                <path d="M185.2893,219.516 C180.0823,219.57 174.8823,219.448 169.6843,219.15 C169.2013,219.122 169.2023,219.872 169.6843,219.9 C174.8823,220.198 180.0823,220.32 185.2893,220.266 C185.7713,220.261 185.7723,219.511 185.2893,219.516" id="Fill-44" fill="#182646"></path>
                <path d="M169.0823,220.12 C169.4433,229.257 169.8043,238.393 170.1643,247.53 C170.1843,248.011 170.9343,248.014 170.9143,247.53 C170.5543,238.393 170.1933,229.257 169.8323,220.12 C169.8133,219.639 169.0633,219.636 169.0823,220.12" id="Fill-45" fill="#182646"></path>
                <path d="M192.1946,199.7299 C191.7246,207.4369 189.9746,216.6629 181.8166,219.7489 C181.3696,219.9169 181.5636,220.6429 182.0156,220.4719 C190.5226,217.2549 192.4516,207.8259 192.9446,199.7299 C192.9736,199.2479 192.2236,199.2499 192.1946,199.7299" id="Fill-46" fill="#182646"></path>
                <path d="M191.9075,199.0907 C189.6285,207.0617 182.1995,212.1537 179.7735,220.0697 C179.6325,220.5317 180.3555,220.7297 180.4975,220.2687 C182.9205,212.3617 190.3475,207.2737 192.6305,199.2907 C192.7625,198.8257 192.0405,198.6267 191.9075,199.0907" id="Fill-47" fill="#182646"></path>
                <path d="M180.4934,219.5262 C178.6074,211.4622 178.5754,203.2092 180.3984,195.1312 C180.5044,194.6602 179.7814,194.4602 179.6754,194.9312 C177.8234,203.1372 177.8554,211.5352 179.7704,219.7262 C179.8804,220.1952 180.6034,219.9972 180.4934,219.5262" id="Fill-48" fill="#182646"></path>
                <path d="M179.5843,194.9433 C174.8903,201.8353 170.6193,210.0953 173.8283,218.5153 C173.9993,218.9613 174.7253,218.7673 174.5523,218.3153 C171.4093,210.0713 175.6463,202.0543 180.2313,195.3223 C180.5043,194.9223 179.8553,194.5463 179.5843,194.9433" id="Fill-49" fill="#182646"></path>
                <path d="M174.4934,219.2972 C171.7894,215.1792 168.4224,211.6472 164.4434,208.7402 C164.0544,208.4552 163.6794,209.1062 164.0654,209.3882 C167.9374,212.2172 171.2134,215.6672 173.8464,219.6752 C174.1094,220.0772 174.7594,219.7022 174.4934,219.2972" id="Fill-50" fill="#182646"></path>
                <path d="M164.0276,209.7113 C164.5516,214.1283 167.3696,217.7883 171.5076,219.4203 C171.9576,219.5973 172.1516,218.8723 171.7076,218.6973 C167.9136,217.2003 165.2586,213.7623 164.7776,209.7113 C164.7206,209.2383 163.9706,209.2323 164.0276,209.7113" id="Fill-51" fill="#182646"></path>
                <path d="M188.1243,256.1576 L178.6633,256.1576 C178.1813,256.1576 178.1803,256.9076 178.6633,256.9076 L188.1243,256.9076 C188.6063,256.9076 188.6063,256.1576 188.1243,256.1576" id="Fill-52" fill="#182646"></path>
                <path d="M185.7591,310.08 L178.1911,310.08 C177.7081,310.08 177.7071,310.83 178.1911,310.83 L185.7591,310.83 C186.2411,310.83 186.2421,310.08 185.7591,310.08" id="Fill-53" fill="#182646"></path>
                <path d="M187.178,366.3676 L176.299,366.3676 C175.816,366.3676 175.816,367.1176 176.299,367.1176 L187.178,367.1176 C187.66,367.1176 187.661,366.3676 187.178,366.3676" id="Fill-54" fill="#182646"></path>
                <path d="M204.2073,408.9379 L66.5083,408.9379 L30.1413,408.9379 C29.6573,408.9379 29.6573,409.6879 30.1413,409.6879 L167.8393,409.6879 L204.2073,409.6879 C204.6893,409.6879 204.6903,408.9379 204.2073,408.9379" id="Fill-55" fill="#182646"></path>
                <path d="M412.429,337.1288 C412.429,337.1288 400.019,338.1628 392.78,327.8218 C385.541,317.4798 382.697,321.3578 379.336,315.6708 C375.975,309.9828 374.682,297.0558 382.955,290.5918 C391.229,284.1288 403.897,290.3338 406.224,299.6408 C408.551,308.9478 410.361,312.5678 413.204,318.2558 C416.048,323.9438 418.116,331.1828 412.429,337.1288" id="Fill-56" fill="#35C28C"></path>
                <path d="M455.0872,350.5731 C455.0872,350.5731 451.9842,342.8171 458.9652,334.0261 C461.2922,330.6651 459.2242,324.7191 462.5852,318.2561 C465.9462,311.7921 476.2872,304.2951 487.6632,307.6561 C499.0392,311.0161 500.0732,331.6991 484.8192,339.1971 C469.5662,346.6951 473.2312,349.3961 469.0482,352.1241 C463.1022,356.0021 455.6052,355.4851 452.7612,354.1921 L455.0872,350.5731 Z" id="Fill-57" fill="#35C28C"></path>
                <path d="M410.7708,371.5922 C410.4788,379.7202 410.1938,388.2382 411.5438,396.2892 C412.5838,402.4912 415.5258,408.6302 421.5128,411.3442 C421.9498,411.5422 422.3318,410.8952 421.8918,410.6962 C415.1078,407.6222 412.6538,400.3282 411.9148,393.4242 C411.1428,386.2132 411.2608,378.8282 411.5208,371.5922 C411.5388,371.1092 410.7888,371.1102 410.7708,371.5922" id="Fill-58" fill="#182646"></path>
                <path d="M412.3665,371.9672 L456.2655,371.9672 C456.7495,371.9672 456.7495,371.2172 456.2655,371.2172 L412.3665,371.2172 C411.8845,371.2172 411.8835,371.9672 412.3665,371.9672" id="Fill-59" fill="#182646"></path>
                <path d="M458.0501,373.3124 C458.0441,380.5854 458.1221,387.8634 458.0281,395.1364 C457.9441,401.6714 455.1941,409.5004 447.6481,410.2864 C447.1721,410.3354 447.1671,411.0854 447.6481,411.0364 C453.4811,410.4284 457.4651,405.2494 458.4391,399.7204 C459.1411,395.7294 458.7861,391.4584 458.7891,387.4244 C458.7931,382.7204 458.7961,378.0164 458.8001,373.3124 C458.8001,372.8304 458.0501,372.8294 458.0501,373.3124" id="Fill-60" fill="#182646"></path>
                <path d="M408.4934,411.993 L476.4944,411.993 C476.9764,411.993 476.9774,411.243 476.4944,411.243 L408.4934,411.243 C408.0114,411.243 408.0104,411.993 408.4934,411.993" id="Fill-61" fill="#182646"></path>
                <path d="M415.3792,377.9926 L453.2532,377.9926 C453.7362,377.9926 453.7362,377.2426 453.2532,377.2426 L415.3792,377.2426 C414.8972,377.2426 414.8962,377.9926 415.3792,377.9926" id="Fill-62" fill="#182646"></path>
                <path d="M407.1507,346.4823 C412.0877,354.8063 417.2587,362.9853 422.6637,371.0143 C422.9317,371.4133 423.5817,371.0383 423.3107,370.6363 C417.9077,362.6073 412.7347,354.4283 407.7977,346.1043 C407.5517,345.6893 406.9037,346.0653 407.1507,346.4823" id="Fill-63" fill="#182646"></path>
                <path d="M407.2161,346.1454 C395.4481,346.6444 383.6821,347.1434 371.9141,347.6424 C371.4341,347.6624 371.4311,348.4124 371.9141,348.3924 C383.6821,347.8934 395.4481,347.3944 407.2161,346.8954 C407.6961,346.8754 407.6991,346.1244 407.2161,346.1454" id="Fill-64" fill="#182646"></path>
                <path d="M372.2434,347.6107 C375.2294,354.7767 381.9434,360.3537 390.0444,359.7207 C397.9304,359.1047 403.2594,352.4977 407.7234,346.6837 C408.0174,346.3017 407.3664,345.9277 407.0764,346.3057 C403.0694,351.5217 398.4094,357.4527 391.5664,358.7637 C383.3264,360.3437 376.0144,354.7267 372.9664,347.4107 C372.7834,346.9717 372.0574,347.1647 372.2434,347.6107" id="Fill-65" fill="#182646"></path>
                <path d="M390.0393,295.6293 C402.7953,321.7793 416.7823,347.3153 431.9513,372.1443 C432.2023,372.5553 432.8513,372.1793 432.5993,371.7663 C417.4303,346.9363 403.4423,321.4013 390.6863,295.2513 C390.4753,294.8173 389.8283,295.1963 390.0393,295.6293" id="Fill-66" fill="#182646"></path>
                <path d="M411.9368,335.8524 C407.4708,336.2274 402.5218,336.2024 398.6608,333.6054 C395.3808,331.4004 393.4918,327.8544 391.0518,324.8524 C388.6348,321.8804 385.4828,320.2944 382.4688,318.0434 C378.3158,314.9414 377.2078,310.3484 377.1238,305.3764 C377.0458,300.6464 377.8898,295.4494 381.4778,292.0434 C384.7588,288.9274 389.6808,287.8004 394.0498,288.8064 C398.1458,289.7494 401.6668,292.5544 403.9478,296.0274 C406.3768,299.7294 406.8438,304.0144 408.0508,308.1694 C410.5248,316.6844 420.5948,327.8344 412.8768,336.4044 C412.5548,336.7624 413.0838,337.2944 413.4078,336.9344 C420.2548,329.3304 413.5968,319.4524 410.2658,311.9904 C408.0928,307.1214 407.9238,301.5634 405.3348,296.8774 C403.3398,293.2654 400.1548,290.2394 396.2898,288.7244 C388.1888,285.5494 379.2748,289.9944 377.0988,298.3924 C375.9588,302.7914 375.9278,308.1514 377.3988,312.4824 C378.8628,316.7944 382.3198,318.8164 385.9068,321.2174 C390.7498,324.4584 392.8268,329.9914 397.2908,333.5394 C401.4238,336.8244 406.9008,337.0244 411.9368,336.6024 C412.4138,336.5624 412.4178,335.8114 411.9368,335.8524" id="Fill-67" fill="#182646"></path>
                <path d="M435.6634,371.5848 C436.3804,340.7258 437.7684,309.8848 439.8294,279.0858 C439.8614,278.6038 439.1114,278.6058 439.0794,279.0858 C437.0184,309.8848 435.6304,340.7258 434.9134,371.5848 C434.9024,372.0678 435.6524,372.0668 435.6634,371.5848" id="Fill-68" fill="#182646"></path>
                <path d="M439.2415,265.7479 C432.6145,264.3919 425.8985,267.4049 421.7625,272.6259 C417.0365,278.5919 416.1755,286.7749 417.4755,294.0609 C418.3285,298.8369 420.3245,303.3679 420.5545,308.2559 C420.7645,312.7349 419.7625,317.2189 420.7285,321.6609 C422.2915,328.8409 427.8135,334.3599 433.6175,338.4549 C434.0125,338.7339 434.3875,338.0839 433.9955,337.8069 C428.2495,333.7529 422.7745,328.2489 421.3795,321.0899 C420.6085,317.1339 421.3785,313.1459 421.3265,309.1649 C421.2775,305.3799 420.2045,301.8229 419.2205,298.1999 C417.1945,290.7459 416.7685,282.5259 420.6885,275.5719 C424.2905,269.1819 431.6765,264.9629 439.0425,266.4709 C439.5125,266.5669 439.7155,265.8449 439.2415,265.7479" id="Fill-69" fill="#182646"></path>
                <path d="M438.4641,266.7601 C444.5921,267.6741 449.4431,271.9111 452.1731,277.3571 C455.4551,283.9051 455.0401,291.5101 452.9771,298.3641 C450.9881,304.9661 446.4781,310.6731 445.0331,317.4041 C443.6141,324.0151 444.7551,333.6571 437.1661,336.8521 C436.7281,337.0361 436.9201,337.7621 437.3651,337.5751 C443.8981,334.8261 444.4851,327.3261 445.2071,321.1981 C446.2461,312.3791 451.9961,305.3511 454.1851,296.8301 C455.9041,290.1361 455.9001,282.9041 452.6631,276.6631 C449.8331,271.2081 444.8351,266.9581 438.6631,266.0361 C438.1911,265.9661 437.9871,266.6891 438.4641,266.7601" id="Fill-70" fill="#182646"></path>
                <path d="M437.7044,371.5853 C453.6694,352.8043 469.6334,334.0233 485.5984,315.2423 C485.9084,314.8763 485.3814,314.3433 485.0674,314.7113 C469.1024,333.4923 453.1394,352.2733 437.1744,371.0553 C436.8634,371.4203 437.3924,371.9533 437.7044,371.5853" id="Fill-71" fill="#182646"></path>
                <path d="M455.4602,350.224 C453.2042,345.043 454.7282,340.445 457.8632,336.117 C460.3602,332.669 460.4682,329.339 460.8962,325.239 C461.8292,316.315 469.1282,309.21 477.7072,307.218 C482.6322,306.075 488.0532,306.723 491.7612,310.416 C494.7542,313.397 496.1412,317.863 495.8972,322.023 C495.3242,331.801 487.2672,337.372 479.6972,341.976 C477.8492,343.1 476.0172,344.285 474.4062,345.74 C472.4032,347.549 470.9882,349.94 468.7832,351.533 C464.5992,354.556 459.0622,354.648 454.1142,354.385 C453.6332,354.359 453.6342,355.109 454.1142,355.135 C458.7282,355.38 463.7442,355.299 467.8892,352.984 C469.8452,351.891 471.2322,350.337 472.6802,348.658 C474.7192,346.29 477.0732,344.464 479.7312,342.834 C487.5532,338.038 495.8392,332.464 496.6272,322.375 C497.3022,313.736 491.2812,306.073 482.4112,305.938 C473.6722,305.805 464.8252,311.615 461.4872,319.688 C460.5122,322.048 460.1912,324.436 460.0112,326.964 C459.7282,330.914 458.8102,333.526 456.5012,336.701 C453.4662,340.873 452.7322,345.826 454.8132,350.603 C455.0052,351.044 455.6512,350.662 455.4602,350.224" id="Fill-72" fill="#182646"></path>
                <path d="M445.718,371.5287 C452.852,367.7867 459.669,363.5147 466.148,358.7257 C466.531,358.4427 466.157,357.7907 465.769,358.0787 C459.291,362.8667 452.474,367.1387 445.34,370.8817 C444.912,371.1057 445.291,371.7527 445.718,371.5287" id="Fill-73" fill="#182646"></path>
                <path d="M465.3177,358.224 C469.9087,363.787 477.0217,369.774 484.6987,366.413 C486.0387,365.826 487.2297,365.037 488.7617,365.091 C489.9547,365.133 491.1187,365.596 492.2437,365.948 C493.7357,366.414 495.2577,366.858 496.8357,366.565 C500.9377,365.803 502.9127,361.661 504.3927,358.225 C504.5817,357.787 503.9357,357.404 503.7457,357.847 C501.9457,362.024 499.2777,366.923 493.8867,365.655 C491.3277,365.053 489.0467,363.759 486.4077,364.754 C484.4637,365.487 482.8547,366.497 480.7037,366.589 C478.3807,366.687 476.0507,366.049 474.0017,364.983 C470.7217,363.277 468.1707,360.507 465.8487,357.694 C465.5417,357.321 465.0127,357.854 465.3177,358.224" id="Fill-74" fill="#182646"></path>
                <path d="M466.596,359.0555 L503.609,359.0555 C504.091,359.0555 504.092,358.3055 503.609,358.3055 L466.596,358.3055 C466.113,358.3055 466.113,359.0555 466.596,359.0555" id="Fill-75" fill="#182646"></path>
                <path d="M209.3616,137.4003 C209.3616,137.4003 203.9176,139.1253 199.8336,145.8443 C195.7496,152.5643 184.9706,178.2233 185.2976,182.1223 C185.6236,186.0203 205.5486,223.7333 205.5486,223.7333 L211.4246,217.9433 L198.0836,182.4913 L215.0466,162.0923" id="Fill-76" fill="#FFC3A9"></path>
                <path d="M223.261,400.9164 C222.83,400.7934 222.374,400.6794 221.9,400.5654 C218.184,399.6734 216.087,395.7234 217.399,392.1334 L205.861,392.1334 C205.718,394.2164 205.583,396.3324 205.468,398.5174 L205.222,401.7064 C205.783,402.2394 206.471,402.8164 207.138,403.1644 C208.622,403.9384 220.238,404.7594 222.134,403.1644 C223.054,402.3904 223.309,401.6074 223.261,400.9164" id="Fill-77" fill="#FFC3A9"></path>
                <path d="M230.4964,403.3373 C227.7174,402.1083 223.2614,400.9163 223.2614,400.9163 L219.6104,403.9003 C215.5314,404.3923 208.2894,403.7653 207.1394,403.1643 C206.4714,402.8163 205.7834,402.2393 205.2224,401.7063 L204.9284,405.5063 C204.8184,406.9163 205.9334,408.1203 207.3474,408.1203 L225.5364,408.1203 C233.6974,408.0553 233.2754,404.5653 230.4964,403.3373" id="Fill-78" fill="#182646"></path>
                <path d="M256.1438,400.9164 C255.7128,400.7934 255.2568,400.6794 254.7828,400.5654 C251.0668,399.6734 248.9708,395.7234 250.2828,392.1334 L238.7448,392.1334 C238.6008,394.2164 238.4658,396.3324 238.3518,398.5174 L238.1048,401.7064 C238.6668,402.2394 239.3538,402.8164 240.0218,403.1644 C241.5048,403.9384 253.1208,404.7594 255.0168,403.1644 C255.9368,402.3904 256.1918,401.6074 256.1438,400.9164" id="Fill-79" fill="#FFC3A9"></path>
                <path d="M263.3792,403.3373 C260.6002,402.1083 256.1442,400.9163 256.1442,400.9163 L252.4932,403.9003 C248.4142,404.3923 241.1722,403.7653 240.0222,403.1643 C239.3552,402.8163 238.6672,402.2393 238.1052,401.7063 L237.8112,405.5063 C237.7012,406.9163 238.8162,408.1203 240.2302,408.1203 L258.4202,408.1203 C266.5812,408.0553 266.1582,404.5653 263.3792,403.3373" id="Fill-80" fill="#182646"></path>
                <polyline id="Fill-81" fill="#182646" points="222.4807 314.1141 217.5147 396.2491 205.6717 396.2491 199.5597 306.8561"></polyline>
                <polyline id="Fill-82" fill="#182646" points="233.4143 314.1141 238.3813 396.2491 250.2243 396.2491 256.3363 306.8561"></polyline>
                <path d="M248.4212,223.7177 C246.0752,210.2817 245.4392,197.5457 245.4502,187.4667 C245.4562,182.6417 246.7552,177.9187 249.1982,173.7587 C252.2072,168.6367 255.1862,163.0377 254.7182,159.8587 C253.8572,153.9987 248.6552,135.9497 246.1012,134.3497 C242.3522,132.0017 238.4402,131.6167 238.4402,131.6167 L222.3302,128.9207 L211.0242,131.9617 C209.1362,132.5907 207.4212,133.5347 205.9132,134.7127 C202.3972,137.9107 199.6822,142.8667 199.5642,150.5517 C199.2192,172.9577 205.7692,189.8487 201.6322,216.7367 C199.9412,227.7337 197.5582,236.2207 195.3312,243.6507 C193.8072,248.7377 192.7032,253.9477 192.1032,259.2247 C188.3392,292.2927 191.0242,317.6867 186.9632,324.5987 C199.8572,326.8907 207.0672,321.4947 216.5232,324.3607 C225.9782,327.2257 235.1462,328.3717 244.0272,324.6467 C252.9092,320.9217 265.2302,322.1637 265.2302,322.1637 C265.6112,302.6807 252.6232,247.7857 248.4212,223.7177" id="Fill-83" fill="#6ACDB8"></path>
                <path d="M262.097,130.4237 L258.554,130.8067 L240.93,132.7127 L238.603,151.8437 C238.603,151.8437 248.7,151.4097 259.942,149.4397 C261.031,149.2487 262.13,149.0407 263.233,148.8197 C260.957,141.3147 261.624,133.7297 262.097,130.4237" id="Fill-84" fill="#6ACDB8"></path>
                <path d="M310.347,92.2509 C310.347,90.3119 309.184,88.7609 309.184,88.7609 C308.537,86.1749 307.287,86.2619 307.287,86.2619 C305.909,82.1249 301.083,80.4009 302.634,82.6419 C304.186,84.8829 304.53,91.4319 301.772,91.9489 C299.015,92.4659 298.842,88.1569 298.842,88.1569 C296.257,92.4659 297.033,104.0149 297.033,104.0149 L279.194,128.5759 L262.097,130.4239 C261.624,133.7299 260.957,141.3139 263.233,148.8199 C272.297,147.0059 281.537,144.1519 286.432,139.6929 C296.372,130.6369 303.495,106.0829 303.495,106.0829 C312.286,98.9729 310.347,92.2509 310.347,92.2509" id="Fill-85" fill="#FFC3A9"></path>
                <path d="M302.5852,82.5585 L296.0112,91.5985 C295.3822,92.4625 295.5642,93.6705 296.4182,94.3115 C297.2812,94.9585 298.5052,94.7845 299.1532,93.9215 L300.6922,91.8735 L303.8182,87.7135 C303.8422,85.7925 303.3802,83.7195 302.6342,82.6415 C302.6122,82.6105 302.6052,82.5885 302.5852,82.5585" id="Fill-86" fill="#070707"></path>
                <path d="M305.219,78.9364 L303.172,81.7514 C304.022,82.0304 305.339,82.9464 306.329,84.3744 L308.408,81.6074 C307.482,79.3024 305.219,78.9364 305.219,78.9364" id="Fill-87" fill="#070707"></path>
                <path d="M307.8509,77.9066 L305.2189,78.9366 C305.2189,78.9366 307.4819,79.3026 308.4089,81.6076 L308.9329,78.7496 C308.6019,78.3386 308.2019,78.0716 307.8509,77.9066" id="Fill-88" fill="#FFC3A9"></path>
                <path d="M308.9329,78.7499 L309.1209,77.7239 C309.1489,77.5759 309.0029,77.4559 308.8629,77.5109 L307.8509,77.9069 C308.2019,78.0719 308.6019,78.3389 308.9329,78.7499" id="Fill-89" fill="#070707"></path>
                <path d="M230.013,141.4047 C225.566,141.1117 222.222,137.1917 222.269,132.7357 L222.309,128.9267 L219.076,129.7957 L220.494,132.1587 C220.724,132.5407 220.729,133.0167 220.508,133.4047 L219.529,135.1177 C218.757,136.4677 219.278,138.1887 220.668,138.8837 L222.179,139.6387 C222.444,139.7717 222.652,139.9937 222.766,140.2677 L223.331,141.6247 C223.882,142.9477 225.369,143.6127 226.723,143.1397 L227.455,142.8847 C227.811,142.7607 228.204,142.8057 228.523,143.0087 L230.089,144.0057 C231.108,144.6547 232.434,144.5487 233.338,143.7477 L234.426,142.7847 C234.682,142.5577 235.02,142.4477 235.36,142.4807 L235.739,142.5167 C237.233,142.6587 238.557,141.5597 238.693,140.0657 L238.728,139.6747 C238.767,139.2447 239.029,138.8667 239.416,138.6777 L239.438,138.6677 C240.824,137.9937 241.368,136.3007 240.636,134.9447 C240.405,134.5177 240.447,133.9947 240.742,133.6087 L241.572,132.5257 L238.858,131.7377 L238.873,133.0097 C238.937,137.8337 234.881,141.7257 230.013,141.4047" id="Fill-90" fill="#182646"></path>
                <path d="M246.8723,115.7636 L248.5393,115.7386 C249.2513,115.7276 249.6943,114.9636 249.3513,114.3396 L246.5533,109.2496 L245.3423,98.2056 C245.1863,96.2596 243.5433,94.7716 241.5913,94.8086 L232.9563,94.9756 C227.2233,95.0866 222.6153,99.7346 222.5553,105.4696 L222.2683,132.7356 C222.2213,137.1916 225.5653,141.1126 230.0133,141.4046 C234.8823,141.7256 238.9363,137.8336 238.8733,133.0106 L238.7683,124.8816 L240.5263,124.8816 C244.3653,124.8816 247.3813,121.5926 247.0473,117.7676 L246.8723,115.7636 Z" id="Fill-91" fill="#FFC3A9"></path>
                <path d="M240.9671,118.9989 C240.9671,118.9989 242.4041,120.2229 244.3801,119.7089" id="Stroke-92" stroke="#070707" stroke-width="0.75"></path>
                <path d="M243.4339,111.2269 C243.4959,111.4669 243.3519,111.7129 243.1109,111.7749 C242.8709,111.8379 242.6249,111.6929 242.5629,111.4529 C242.4999,111.2119 242.6449,110.9669 242.8849,110.9039 C243.1249,110.8419 243.3719,110.9859 243.4339,111.2269" id="Fill-93" fill="#070808"></path>
                <path d="M243.4339,111.2269 C243.4959,111.4669 243.3519,111.7129 243.1109,111.7749 C242.8709,111.8379 242.6249,111.6929 242.5629,111.4529 C242.4999,111.2119 242.6449,110.9669 242.8849,110.9039 C243.1249,110.8419 243.3719,110.9859 243.4339,111.2269 Z" id="Stroke-94" stroke="#070707" stroke-width="0.75"></path>
                <path d="M234.9768,113.6171 C235.0138,113.9211 235.0588,114.2321 235.1128,114.5501 C235.1128,114.5501 233.0438,111.3831 230.6528,112.0941 C228.5458,112.7201 229.2948,116.1661 232.7858,116.6831 C232.7858,116.6831 230.4158,120.0441 241.9638,146.5871 C251.8358,169.2781 232.1388,187.0911 209.3878,183.2991 C195.6808,181.0151 190.2558,162.2711 196.4608,151.2411 C202.6658,140.2101 198.5298,134.0051 201.9768,126.4211 C205.4238,118.8371 213.3528,115.3901 216.7988,108.1511 C220.2468,100.9121 224.3828,94.5131 235.2578,92.5531 C247.4768,90.3511 254.7398,102.4421 246.5748,109.3361 L245.7718,102.3781 C245.7718,102.3781 244.6068,104.6911 241.4238,105.3041 C237.4348,106.0751 234.4928,109.5831 234.9768,113.6171" id="Fill-95" fill="#070707"></path>
                <path d="M233.7522,117.349 C233.9432,118.088 233.4992,118.843 232.7612,119.034 C232.0222,119.226 231.2672,118.782 231.0752,118.043 C230.8842,117.304 231.3272,116.55 232.0662,116.358 C232.8062,116.166 233.5602,116.61 233.7522,117.349" id="Fill-96" fill="#F7931E"></path>
                <polygon id="Fill-97" fill="#070707" points="238.8577 131.7377 238.7677 124.8817 232.9307 124.8817"></polygon>
                <path d="M253.5696,154.4286 C253.2696,153.2196 252.9276,151.9256 252.5576,150.5956 L246.4446,151.4986 L253.5696,154.4286 Z" id="Fill-98" fill="#4EAF98"></path>
                <path d="M573.0491,391.4628 L573.3121,396.8528 L560.0521,405.6198 C559.1571,406.2118 558.6411,407.2318 558.6931,408.3028 C558.7721,409.9218 560.1081,411.1938 561.7281,411.1938 L593.8511,411.1938 C595.6931,411.1938 597.1111,409.5698 596.8621,407.7458 L594.1631,387.8598 L573.0491,391.4628 Z" id="Fill-99" fill="#000000"></path>
                <path d="M499.8401,391.4628 L500.1031,396.8528 L486.8431,405.6198 C485.9471,406.2118 485.4311,407.2318 485.4841,408.3028 C485.5631,409.9218 486.8981,411.1938 488.5191,411.1938 L521.2351,411.1938 C522.8531,411.1938 524.1871,409.9268 524.2701,408.3108 L525.3231,387.8598 L499.8401,391.4628 Z" id="Fill-100" fill="#000000"></path>
                <path d="M588.4524,203.2841 C588.4524,203.2841 583.8304,204.7261 574.3124,205.6171 C574.3104,205.6181 561.9914,206.2191 539.8894,206.6121 C517.7834,207.0051 505.3934,202.6361 495.1674,202.1921 C495.2114,208.3641 490.9374,401.8501 490.9374,401.8501 L525.0644,402.7211 L539.5434,231.1551 L562.3804,402.7211 L596.1624,399.7821 L588.0694,220.6451 L588.4524,203.2841 Z" id="Fill-101" fill="#182646"></path>
                <path d="M495.1673,202.1918 L495.6063,169.8278 C495.3783,183.6718 495.1453,198.9618 495.1673,202.1918" id="Fill-102" fill="#9654DE"></path>
                <path d="M553.9407,83.3856 L528.2887,84.8946 L513.6737,89.4356 C503.5067,92.5946 496.5277,101.9386 496.3827,112.5856 L495.9307,145.8916 L496.0177,145.8106 C496.0177,145.8106 495.8147,157.2186 495.6067,169.8276 L495.1677,202.1916 C503.5957,202.5576 513.5097,205.5836 529.1057,206.4186 C532.4317,206.5966 536.0037,206.6816 539.8887,206.6126 C546.1607,206.5006 551.6417,206.3726 556.2797,206.2456 C567.9907,205.9266 574.3127,205.6176 574.3127,205.6176 C583.8307,204.7256 588.4527,203.2836 588.4527,203.2836 L591.7227,104.9086 C591.9197,98.9606 588.0867,93.6256 582.3857,91.9156 L553.9407,83.3856 Z" id="Fill-103" fill="#9654DE"></path>
                <path d="M496.2513,122.2797 L495.9313,145.8917 L496.0183,145.8107 C496.0183,145.8107 495.9663,148.6827 495.8893,153.1347 C534.8783,148.0207 575.8443,154.2137 589.9993,156.7507 L591.0913,123.9107 C553.2303,119.2627 510.2703,121.3837 496.2513,122.2797" id="Fill-104" fill="#B68CED"></path>
                <path d="M582.9153,161.4315 C582.9123,161.4355 582.9083,161.4385 582.9053,161.4425 C581.4343,162.9475 579.7423,164.4615 577.8323,165.8445 C576.4483,166.9015 574.9823,167.9275 573.4113,168.9075 C571.6233,170.0225 569.7313,170.8685 567.7633,171.4925 L589.5093,171.4925 L590.1503,152.1835 C588.3193,155.2435 586.0763,158.2025 583.3413,160.9925 C583.2023,161.1385 583.0593,161.2855 582.9153,161.4315" id="Fill-105" fill="#070707"></path>
                <path d="M547.6682,232.473 L526.2192,228.718" id="Stroke-106" stroke="#000000"></path>
                <path d="M534.0872,230.0487 L533.1392,210.6287" id="Stroke-107" stroke="#000000"></path>
                <polygon id="Fill-108" fill="#000000" points="539.5432 231.1542 534.5472 277.4502 526.2182 228.7172"></polygon>
                <path d="M497.1692,304.1703 C497.1692,304.1703 497.1002,307.3283 500.8002,308.0603" id="Stroke-109" stroke="#FFFFFF" stroke-width="0.75"></path>
                <path d="M553.4836,308.3895 C553.4836,308.3895 556.5296,309.2235 558.1376,305.8115" id="Stroke-110" stroke="#FFFFFF" stroke-width="0.75"></path>
                <path d="M581.844,305.1937 L589.393,301.7377" id="Stroke-111" stroke="#000000"></path>
                <path d="M500.2268,117.9393 L498.7818,137.5063 C515.3288,132.8523 540.8348,142.7953 540.8348,142.7953 L528.9428,159.8583 C528.9428,159.8583 478.2688,188.1253 470.6858,160.8933 C466.2578,144.9943 480.4428,120.0653 489.2158,105.9393 C493.6428,98.8133 500.4898,93.5323 508.4998,91.0433 L521.6648,86.9523" id="Fill-112" fill="#9654DE"></path>
                <path d="M482.7503,148.6552 C482.7503,148.6552 491.1963,139.1762 507.0533,136.9352" id="Stroke-113" stroke="#000000"></path>
                <path d="M498.263,138.6586 L500.331,115.7346" id="Stroke-114" stroke="#000000"></path>
                <path d="M503.3089,134.6283 C503.3089,134.6283 497.1939,132.1823 496.3779,132.0463 C495.5639,131.9103 492.1659,132.8613 490.8069,134.4923 C489.4489,136.1233 488.3609,137.0743 487.6819,139.1123 C487.0019,141.1513 485.6429,142.2383 485.9149,143.1903 C486.1869,144.1413 487.4099,146.1793 491.8939,142.6463 C491.8939,142.6463 494.6119,147.4023 504.3959,145.0923" id="Fill-115" fill="#FFC3A9"></path>
                <path d="M533.0793,139.0033 C533.0793,139.0033 544.7893,135.2853 545.6043,135.1493 C546.4203,135.0133 549.8173,135.9643 551.1763,137.5953 C552.5353,139.2263 553.6223,140.1773 554.3023,142.2153 C554.9803,144.2533 556.3403,145.3403 556.0683,146.2923 C555.7963,147.2433 554.5733,149.2813 550.0893,145.7483 C550.0893,145.7483 547.3713,150.5043 537.5873,148.1943" id="Fill-116" fill="#FFC3A9"></path>
                <path d="M575.9963,119.5268 C563.5863,124.1808 552.7273,142.7958 552.7273,142.7958 C536.1823,135.0388 503.6053,134.5218 503.6053,134.5218 L499.4693,145.8978 C499.4693,145.8978 547.2993,185.1948 573.4113,168.9078 C602.2703,150.9058 602.4753,121.0258 598.6163,105.6028 C597.1253,99.6468 589.1313,92.8718 583.4753,90.4848 C577.7463,88.0678 562.5093,84.0138 553.0903,83.3638" id="Fill-117" fill="#9654DE"></path>
                <path d="M575.9963,119.5268 C563.5863,124.1808 552.7273,142.7958 552.7273,142.7958 C542.2613,137.8888 525.3793,135.8788 514.3873,135.0648" id="Stroke-118" stroke="#FFFFFF" stroke-width="0.5"></path>
                <path d="M499.469,145.8974 C499.469,145.8974 524.116,172.2684 559.278,172.2684" id="Stroke-119" stroke="#000000"></path>
                <path d="M495.0745,172.2685 C495.0745,172.2685 507.4835,169.4245 519.3765,161.4105" id="Stroke-120" stroke="#000000"></path>
                <path d="M499.469,145.8974 L504.252,133.3584" id="Stroke-121" stroke="#FFFFFF" stroke-width="0.5"></path>
                <polygon id="Fill-122" fill="#9654DE" points="526.4182 403.7548 526.4642 393.2068 488.3722 389.7668 489.6502 401.7488"></polygon>
                <polygon id="Fill-123" fill="#9654DE" points="597.3469 403.3104 597.3929 392.7624 559.7459 391.1014 561.0249 403.0824"></polygon>
                <path d="M540.1047,52.2938 C540.1047,52.2938 539.6507,57.8808 542.2857,62.3318 C542.2857,62.3318 544.2087,58.4658 546.4187,60.2428 C548.7357,62.1048 547.1457,65.3298 545.2837,65.0118 C545.2837,65.0118 547.1917,73.1048 552.6487,77.6978 C553.3947,82.8308 553.9147,86.6328 553.9147,86.6328 L548.5227,93.6198 C546.3287,96.4638 542.8597,98.0258 539.2757,97.7848 C536.0617,97.5688 533.1147,95.9258 531.2407,93.3068 L526.6607,86.9058 L528.3857,76.1858 C525.9247,75.8468 524.2017,73.5818 524.5307,71.1188 L526.6607,55.2008 C526.6607,55.2008 534.3817,55.8368 540.1047,52.2938" id="Fill-124" fill="#FFC3A9"></path>
                <path d="M528.2952,42.3915 C533.3182,45.3555 546.5552,44.8445 548.4632,52.7475 C549.6422,57.6295 551.4422,69.4045 552.6492,77.6985 C547.1912,73.1045 545.2832,65.0125 545.2832,65.0125 C547.1462,65.3295 548.7352,62.1045 546.4192,60.2425 C544.2092,58.4665 542.2852,62.3315 542.2852,62.3315 C539.6502,57.8805 540.1052,52.2935 540.1052,52.2935 C536.0172,54.8245 530.9092,55.2235 528.3242,55.2445 C527.3982,55.2515 526.4762,55.1885 525.5662,55.0115 C508.1292,51.6315 514.9402,34.5125 528.2952,42.3915" id="Fill-125" fill="#070707"></path>
                <polyline id="Stroke-126" stroke="#070707" stroke-width="0.75" points="530.3909 61.4999 530.0989 66.0499 532.6579 66.0619"></polyline>
                <path d="M533.9592,61.3783 C533.9332,61.5853 534.0802,61.7733 534.2862,61.7983 C534.4932,61.8243 534.6822,61.6773 534.7072,61.4713 C534.7322,61.2643 534.5862,61.0763 534.3792,61.0503 C534.1722,61.0243 533.9842,61.1713 533.9592,61.3783 Z" id="Stroke-127" stroke="#070707" stroke-width="0.75"></path>
                <path d="M527.0198,61.3783 C526.9948,61.5853 527.1408,61.7733 527.3478,61.7983 C527.5538,61.8243 527.7428,61.6773 527.7678,61.4713 C527.7938,61.2643 527.6468,61.0763 527.4408,61.0503 C527.2338,61.0243 527.0448,61.1713 527.0198,61.3783 Z" id="Stroke-128" stroke="#070707" stroke-width="0.75"></path>
                <path d="M531.9729,61.3373 C532.1739,63.2933 533.9219,64.7153 535.8769,64.5143 C537.8319,64.3143 539.2549,62.5663 539.0549,60.6103 C538.8539,58.6553 537.1059,57.2333 535.1509,57.4333 C533.1959,57.6333 531.7729,59.3813 531.9729,61.3373 Z" id="Stroke-129" stroke="#070707" stroke-width="0.75"></path>
                <path d="M522.22,61.516 C522.42,63.472 524.168,64.894 526.124,64.694 C528.079,64.493 529.502,62.745 529.301,60.789 C529.101,58.834 527.353,57.412 525.398,57.612 C523.442,57.813 522.02,59.56 522.22,61.516 Z" id="Stroke-130" stroke="#070707" stroke-width="0.75"></path>
                <path d="M531.9377,60.7245 L529.2447,60.6755" id="Stroke-131" stroke="#070707" stroke-width="0.75"></path>
                <path d="M535.469,68.6459 C535.469,68.6459 533.924,70.2809 531.108,70.0999 C528.291,69.9179 527.928,67.9189 527.928,67.9189" id="Stroke-132" stroke="#070707" stroke-width="0.75"></path>
                <polygon id="Fill-133" fill="#070707" points="537.717 76.1859 526.666 86.8649 528.386 76.1859"></polygon>
            </g>
        </g>
    </g>
</svg>