<?xml version="1.0" encoding="UTF-8"?>
<svg width="24px" height="24px" viewBox="0 0 24 24" version="1.1" xmlns="http://www.w3.org/2000/svg" xmlns:xlink="http://www.w3.org/1999/xlink">
    <!-- Generator: Sketch 51.1 (57501) - http://www.bohemiancoding.com/sketch -->
    <title>Group 5 Copy 2</title>
    <desc>Created with Sketch.</desc>
    <defs></defs>
    <g id="Page-1" stroke="none" stroke-width="1" fill="none" fill-rule="evenodd">
        <g id="home-page" transform="translate(-188.000000, -3578.000000)" fill="#F15B24">
            <g id="Group-5-Copy-2" transform="translate(188.000000, 3578.000000)">
                <polygon id="Fill-1" points="6.63636364 8.90909091 16.6363636 8.90909091 16.6363636 6 6.63636364 6"></polygon>
                <polygon id="Fill-2" points="6.63636364 14.9090909 16.6363636 14.9090909 16.6363636 12 6.63636364 12"></polygon>
                <path d="M2.90909091,2.90909091 L20.3636364,2.90909091 L20.3636364,16.4996364 L17.6167273,16.4996364 L16.6865455,16.4996364 C16.1556364,16.4996364 15.7250909,16.9301818 15.7250909,17.4618182 L15.7250909,18.3905455 L15.7250909,20.8181818 L2.90909091,20.8181818 L2.90909091,2.90909091 Z M23.2727273,0 L0,0 L0,23.7272727 L16.7432727,23.7272727 C16.8189091,23.7272727 16.8901818,23.7134545 16.9621818,23.7054545 C17.0349091,23.7156364 17.1069091,23.7272727 17.1796364,23.7272727 C17.5403636,23.7272727 17.896,23.5927273 18.1701818,23.3374545 L22.8087273,19.0189091 C23.1614545,18.6916364 23.312,18.2203636 23.2487273,17.7585455 C23.2581818,17.6792727 23.2727273,17.6007273 23.2727273,17.5185455 L23.2727273,0 Z" id="Fill-3"></path>
            </g>
        </g>
    </g>
</svg>