<?xml version="1.0" encoding="UTF-8"?>
<svg width="39px" height="23px" viewBox="0 0 39 23" version="1.1" xmlns="http://www.w3.org/2000/svg" xmlns:xlink="http://www.w3.org/1999/xlink">
    <!-- Generator: Sketch 51.1 (57501) - http://www.bohemiancoding.com/sketch -->
    <title>Fill 1</title>
    <desc>Created with Sketch.</desc>
    <defs></defs>
    <g id="Page-1" stroke="none" stroke-width="1" fill="none" fill-rule="evenodd">
        <g id="careers" transform="translate(-548.000000, -2455.000000)" fill="#FA873B">
            <g id="Group-10" transform="translate(198.000000, 2267.000000)">
                <g id="Group-3" transform="translate(350.000000, 188.000000)">
                    <g id="Page-1">
                        <g id="Group-3">
                            <path d="M30.7907284,13.33917 L30.7907284,11.84337 C30.7907284,11.06757 31.4733374,10.43667 32.3139217,10.43667 C33.154506,10.43667 33.8371151,11.06757 33.8371151,11.84337 L33.8371151,13.33917 C33.8371151,13.78287 33.6099038,14.17437 33.260798,14.43177 C33.0004314,14.62527 32.6737542,14.74497 32.3139217,14.74497 C31.9540892,14.74497 31.6274121,14.62527 31.3670455,14.43177 C31.0179397,14.17437 30.7907284,13.78287 30.7907284,13.33917 M15.9781121,8.14527 L15.9781121,5.64237 C15.9781121,4.00257 17.423293,2.66967 19.2000268,2.66967 C20.9767606,2.66967 22.4219415,4.00257 22.4219415,5.64237 L22.4219415,8.14527 C22.4219415,9.18297 21.8407486,10.09557 20.9670091,10.62747 C20.4589529,10.93707 19.852406,11.11977 19.2000268,11.11977 C18.5466724,11.11977 17.9401255,10.93707 17.4330445,10.62747 C16.5573546,10.09557 15.9781121,9.18297 15.9781121,8.14527 M4.57269007,13.33827 L4.57269007,11.84337 C4.57269007,11.06757 5.25529912,10.43667 6.09685856,10.43667 C6.93646768,10.43667 7.61907673,11.06757 7.61907673,11.84337 L7.61907673,13.33827 C7.61907673,13.78197 7.39186543,14.17437 7.04178451,14.43177 C6.78141792,14.62527 6.45571588,14.74497 6.09685856,14.74497 C5.73800123,14.74497 5.41132404,14.62527 5.14998229,14.43177 C4.80087652,14.17437 4.57269007,13.78197 4.57269007,13.33827 M35.7328179,15.32907 C36.1297063,14.75127 36.3676443,14.07177 36.3676443,13.33917 L36.3676443,11.84337 C36.3676443,9.78057 34.5489788,8.10207 32.3139217,8.10207 C30.0788647,8.10207 28.259224,9.78057 28.259224,11.84337 L28.259224,13.33917 C28.259224,14.07177 28.497162,14.75127 28.8940504,15.32907 C28.5859012,15.52257 28.2992054,15.74127 28.0359133,15.98247 C27.2362856,14.15907 25.7959805,12.64257 23.9724392,11.66427 C24.8091228,10.69767 25.3132784,9.47637 25.3132784,8.14527 L25.3132784,5.64237 C25.3132784,2.53107 22.5711403,0.00027 19.2000268,0.00027 C15.8289133,0.00027 13.0858,2.53107 13.0858,5.64237 L13.0858,8.14527 C13.0858,9.47637 13.5899556,10.69767 14.4285895,11.66427 C12.6060234,12.64167 11.1657183,14.15547 10.3670657,15.97527 C10.1047488,15.73677 9.82097848,15.51987 9.51672988,15.32907 C9.91264313,14.75037 10.1505811,14.07087 10.1505811,13.33827 L10.1505811,11.84337 C10.1505811,9.78057 8.33191561,8.10207 6.09685856,8.10207 C3.86180151,8.10207 2.04313598,9.78057 2.04313598,11.84337 L2.04313598,13.33827 C2.04313598,14.07087 2.28107399,14.75037 2.67698723,15.32817 C1.06310442,16.34157 0.000184615385,18.04887 0.000184615385,19.98297 L0.000184615385,21.91437 L2.53071387,21.91437 L2.53071387,19.98297 C2.53071387,18.55647 3.52439761,17.35137 4.90326788,16.89597 C5.28260348,17.00487 5.67851673,17.08047 6.09685856,17.08047 C6.51422523,17.08047 6.91013848,17.00487 7.28849892,16.89597 C8.6673692,17.35137 9.66202809,18.55647 9.66202809,19.98297 L9.66202809,21.91437 L9.66690387,21.91437 L9.66690387,22.50027 L12.5601911,22.50027 L12.5601911,19.26837 C12.5601911,16.55667 14.4792976,14.25447 17.1287959,13.44807 C17.7762993,13.66407 18.4725606,13.78827 19.2000268,13.78827 C19.927493,13.78827 20.6227791,13.66407 21.2702825,13.44807 C23.9207559,14.25447 25.8408377,16.55667 25.8408377,19.26837 L25.8408377,22.50027 L28.7321745,22.50027 L28.7321745,21.91437 L28.747777,21.91437 L28.747777,19.98387 C28.747777,18.55737 29.7424359,17.35137 31.1203311,16.89597 C31.4996666,17.00487 31.8955799,17.08047 32.3139217,17.08047 C32.7312884,17.08047 33.1272016,17.00487 33.5075124,16.89597 C34.8854075,17.35137 35.8800664,18.55737 35.8800664,19.98387 L35.8800664,21.91437 L38.4096205,21.91437 L38.4096205,19.98387 C38.4096205,18.05067 37.3476759,16.34247 35.7328179,15.32907" id="Fill-1"></path>
                        </g>
                    </g>
                </g>
            </g>
        </g>
    </g>
</svg>